<?xml version="1.0" encoding="UTF-8"?>
<svg xmlns="http://www.w3.org/2000/svg" xmlns:xlink="http://www.w3.org/1999/xlink" width="113pt" height="183pt" viewBox="0 0 113 183" version="1.1">
<g id="surface1">
<path style="fill-rule:nonzero;fill:rgb(100%,78.823529%,0%);fill-opacity:1;stroke-width:20;stroke-linecap:round;stroke-linejoin:round;stroke:rgb(0%,0%,0%);stroke-opacity:1;stroke-miterlimit:4;" d="M 550.04289 2370.057362 L 250.147093 985.003904 L 469.883535 930.036465 L 250.147093 985.003904 L 9.980931 300.037166 C 143.008032 339.884622 250.147093 239.872233 313.931482 380.047077 C 321.105277 349.019612 344.030229 356.894603 348.864742 326.969636 C 378.963488 503.05444 557.996445 490.139454 331.086208 823.881583 L 345.121893 830.024076 C 473.938289 606.059325 485.946597 706.071714 570.940465 620.07681 C 582.013061 672.051752 608.992766 690.951731 582.013061 735.051682 C 720.96634 740.879175 764.165059 1083.913794 600.103499 1149.118721 C 613.82728 1203.92866 588.095191 1217.946144 589.030903 1260.943597 C 509.963213 1176.99619 410.933659 1243.146116 333.113585 1145.968724 C 376.78016 1368.830976 610.708239 1512.943316 855.708914 1467.898366 C 1100.709589 1423.010916 1263.835436 1205.976158 1220.012909 983.113906 C 1181.960608 1100.923775 1066.088233 1075.093803 1023.045466 1181.091185 C 1007.918117 1141.08623 979.066988 1136.991234 971.893193 1081.078797 C 795.979278 1079.031299 712.856833 744.029172 839.957756 687.959234 C 799.098319 656.931769 817.968517 629.0543 809.85901 576.921858 C 920.117112 627.006802 896.100495 529.041911 1096.031027 691.89673 L 1106.947671 681.029242 C 774.92575 450.921998 946.940865 388.079568 912.007605 223.964751 C 928.070666 249.952222 946.161104 234.989738 963.003926 260.97721 C 955.050371 142.064842 1102.113157 145.844838 1153.889239 77.017414 C 1222.040286 130.882354 1363.956654 91.979898 1384.074469 209.002267 C 1394.83516 179.077301 1416.04464 189.944789 1424.933907 160.964821 C 1432.887461 339.097123 1613.012082 347.917113 1347.113832 652.049274 L 1359.901901 658.979267 C 1515.074193 452.969496 1515.074193 554.084383 1610.048993 479.114467 C 1614.103747 531.089409 1639.056075 552.981885 1606.929952 593.931839 C 1744.011807 616.926813 1744.947519 962.953928 1574.024069 1007.053879 C 1580.885959 1062.966317 1554.062206 1073.833805 1549.071741 1117.146257 C 1481.076646 1024.06386 1375.02925 1077.9288 1309.841292 972.088918 C 1343.526935 1221.411141 1540.806282 1398.755943 1769.431991 1384.738459 C 1997.901749 1370.878474 2185.044212 1169.751198 2205.006075 916.963979 C 2152.918089 1030.048854 2041.100467 990.043898 1984.957728 1090.056287 C 1974.976797 1048.003834 1946.905427 1041.073841 1946.905427 983.901405 C 1772.083176 960.90643 1730.911834 618.029312 1863.938935 578.024357 C 1826.978299 541.956897 1848.967538 516.914425 1847.096114 463.836984 C 1950.024468 526.994413 1938.01616 426.982025 2116.893165 612.989318 L 2128.901473 604.011828 C 1827.914011 335.002127 2005.075543 303.817162 1991.819619 125.99986 C 2003.983879 154.034829 2023.945741 140.962343 2037.981426 168.997312 C 2043.907604 49.927444 2189.878726 71.97742 2250.076218 10.079989 C 2310.117758 71.97742 2456.08888 49.927444 2462.015058 168.997312 C 2476.050743 140.962343 2496.168557 154.034829 2508.176865 125.99986 C 2494.920941 303.817162 2672.082473 335.002127 2371.095011 604.011828 L 2383.103319 612.989318 C 2561.980324 426.982025 2549.972016 526.994413 2652.90037 463.836984 C 2651.028946 516.914425 2673.018185 541.956897 2636.057549 578.024357 C 2769.08465 618.029312 2727.913308 960.90643 2553.091057 983.901405 C 2553.091057 1041.073841 2525.019687 1048.003834 2515.038756 1090.056287 C 2458.896017 990.043898 2347.078395 1030.048854 2294.990409 916.963979 C 2314.952272 1169.751198 2502.094735 1370.878474 2730.564493 1384.738459 C 2959.190202 1398.755943 3156.469549 1221.411141 3190.155192 972.088918 C 3124.967234 1077.9288 3018.919838 1024.06386 2950.924743 1117.146257 C 2945.934278 1073.833805 2919.110525 1062.966317 2925.972415 1007.053879 C 2755.048965 962.953928 2755.984677 616.926813 2893.066532 593.931839 C 2860.940409 552.981885 2885.892737 531.089409 2889.947491 479.114467 C 2984.922291 554.084383 2984.922291 452.969496 3140.094583 658.979267 L 3152.882652 652.049274 C 2886.984402 347.917113 3067.109023 339.097123 3075.062577 160.964821 C 3083.951844 189.944789 3105.161324 179.077301 3116.077967 209.002267 C 3136.03983 91.979898 3277.956198 130.882354 3346.107245 77.017414 C 3397.883327 145.844838 3544.946113 142.064842 3536.992558 260.97721 C 3553.83538 234.989738 3571.925818 249.952222 3587.988879 223.964751 C 3553.055619 398.947056 3725.070734 450.921998 3393.048813 681.029242 L 3403.965457 691.89673 C 3603.895989 529.041911 3579.879372 627.006802 3690.137474 576.921858 C 3682.027967 629.0543 3700.898165 656.931769 3660.038728 687.959234 C 3787.139651 744.029172 3704.017206 1079.031299 3528.103291 1081.078797 C 3520.929496 1136.991234 3492.078367 1141.08623 3476.951018 1181.091185 C 3433.908251 1075.093803 3318.035876 1100.923775 3279.983575 983.113906 C 3236.161048 1205.976158 3399.286895 1423.010916 3644.28757 1467.898366 C 3889.288245 1512.943316 4123.216324 1368.830976 4166.882899 1145.968724 C 4089.062825 1243.146116 3990.033271 1176.99619 3910.965581 1260.943597 C 3911.901293 1217.946144 3886.169204 1203.92866 3899.892985 1149.118721 C 3735.831425 1083.913794 3779.030144 740.879175 3917.983423 735.051682 C 3891.003718 690.951731 3917.983423 672.051752 3929.056019 620.07681 C 4014.049887 706.071714 4026.058195 606.059325 4154.874591 830.024076 L 4168.910276 823.881583 C 3942.000039 490.139454 4121.032996 503.05444 4151.131742 326.969636 C 4126.023461 356.894603 4178.891207 349.019612 4186.065002 380.047077 C 4249.849391 239.872233 4356.988452 339.884622 4490.015553 300.037166 L 4249.849391 985.003904 L 4030.112949 930.036465 L 4249.849391 985.003904 L 3949.953594 2370.057362 M 473.002576 2020.092752 C 1645.917965 1783.685515 2854.078519 1783.685515 4026.993908 2020.092752 M 793.016189 1962.132816 L 837.93038 2184.995068 M 1052.832309 1691.075618 L 1090.104849 1917.087866 M 1375.964962 1886.060401 L 1404.036331 2113.962647 M 1644.046541 1632.013183 L 1661.981027 1860.860429 M 2838.015457 1860.860429 L 2855.949943 1632.013183 M 3095.960152 2113.962647 L 3124.031522 1886.060401 M 3409.891635 1917.087866 L 3447.164175 1691.075618 M 3662.066104 2184.995068 L 3706.980295 1962.132816 " transform="matrix(0.0250478,0,0,0.0248016,0.00000000000000811,0)"/>
<path style="fill-rule:nonzero;fill:rgb(100%,78.823529%,0%);fill-opacity:1;stroke-width:20;stroke-linecap:round;stroke-linejoin:round;stroke:rgb(0%,0%,0%);stroke-opacity:1;stroke-miterlimit:4;" d="M 2019.890988 740.091676 L 2480.105496 740.091676 M 2250.076218 499.904444 L 2250.076218 699.929221 " transform="matrix(0.0250478,0,0,0.0248016,0.00000000000000811,0)"/>
<path style="fill-rule:nonzero;fill:rgb(100%,78.823529%,0%);fill-opacity:1;stroke-width:20;stroke-linecap:round;stroke-linejoin:round;stroke:rgb(0%,0%,0%);stroke-opacity:1;stroke-miterlimit:4;" d="M 2335.070087 719.931699 C 2335.070087 766.866646 2297.017786 804.981604 2250.076218 804.981604 C 2202.978698 804.981604 2164.926397 766.866646 2164.926397 719.931699 C 2164.926397 673.154251 2202.978698 635.039293 2250.076218 635.039293 C 2297.017786 635.039293 2335.070087 673.154251 2335.070087 719.931699 Z M 2335.070087 719.931699 " transform="matrix(0.0250478,0,0,0.0248016,0.00000000000000811,0)"/>
<path style="fill-rule:nonzero;fill:rgb(100%,78.823529%,0%);fill-opacity:1;stroke-width:20;stroke-linecap:round;stroke-linejoin:round;stroke:rgb(0%,0%,0%);stroke-opacity:1;stroke-miterlimit:4;" d="M 2019.941932 740.10795 L 2479.98105 739.954613 M 2250.204544 500.152856 L 2250.087393 700.107177 " transform="matrix(0.024861,0.00302255,-0.00305254,0.0246168,27.892998,-5.136951)"/>
<path style="fill-rule:nonzero;fill:rgb(100%,78.823529%,0%);fill-opacity:1;stroke-width:20;stroke-linecap:round;stroke-linejoin:round;stroke:rgb(0%,0%,0%);stroke-opacity:1;stroke-miterlimit:4;" d="M 2335.037458 720.143673 C 2334.972561 766.962976 2296.900494 804.960954 2249.927287 805.015961 C 2203.10887 805.051962 2164.956125 766.892251 2165.021023 720.072949 C 2165.066726 673.09732 2202.984003 635.118348 2250.092806 634.888009 C 2296.930417 635.008334 2335.063967 673.011719 2335.037458 720.143673 Z M 2335.037458 720.143673 " transform="matrix(0.024861,0.00302255,-0.00305254,0.0246168,27.892998,-5.136951)"/>
<path style="fill-rule:nonzero;fill:rgb(100%,78.823529%,0%);fill-opacity:1;stroke-width:20;stroke-linecap:round;stroke-linejoin:round;stroke:rgb(0%,0%,0%);stroke-opacity:1;stroke-miterlimit:4;" d="M 2020.02666 739.954579 L 2480.065778 740.107916 M 2249.803166 500.152822 L 2249.920318 700.107143 " transform="matrix(0.024861,-0.00302255,0.00305254,0.0246168,-27.052841,8.46457)"/>
<path style="fill-rule:nonzero;fill:rgb(100%,78.823529%,0%);fill-opacity:1;stroke-width:20;stroke-linecap:round;stroke-linejoin:round;stroke:rgb(0%,0%,0%);stroke-opacity:1;stroke-miterlimit:4;" d="M 2334.986688 720.072914 C 2335.051585 766.892217 2296.898841 805.051928 2250.080424 805.015927 C 2203.107217 804.96092 2165.035149 766.962942 2164.970252 720.143639 C 2164.943743 673.011685 2203.077293 635.0083 2249.914905 634.887975 C 2297.023707 635.118313 2334.940985 673.097286 2334.986688 720.072914 Z M 2334.986688 720.072914 " transform="matrix(0.024861,-0.00302255,0.00305254,0.0246168,-27.052841,8.46457)"/>
<path style="fill-rule:nonzero;fill:rgb(100%,78.823529%,0%);fill-opacity:1;stroke-width:20;stroke-linecap:round;stroke-linejoin:round;stroke:rgb(0%,0%,0%);stroke-opacity:1;stroke-miterlimit:4;" d="M 2335.018861 719.898491 C 2335.022252 766.970821 2296.937626 805.034926 2249.970746 804.895622 C 2203.041968 804.909138 2165.094309 766.810406 2165.015804 720.081447 C 2165.012413 673.009116 2202.945718 634.98274 2250.025816 634.931495 C 2296.992696 635.070799 2334.902253 673.01671 2335.018861 719.898491 Z M 2335.018861 719.898491 " transform="matrix(0.0243037,0.00600006,-0.00605958,0.0240649,56.210335,-6.869703)"/>
<path style="fill-rule:nonzero;fill:rgb(100%,78.823529%,0%);fill-opacity:1;stroke-width:20;stroke-linecap:round;stroke-linejoin:round;stroke:rgb(0%,0%,0%);stroke-opacity:1;stroke-miterlimit:4;" d="M 2334.987266 720.081208 C 2334.908761 766.810168 2296.961101 804.9089 2250.032324 804.895383 C 2203.065443 805.034688 2164.980818 766.970583 2164.984209 719.898253 C 2165.100816 673.016472 2203.010373 635.070561 2249.977254 634.931257 C 2297.057351 634.982502 2334.990657 673.008878 2334.987266 720.081208 Z M 2334.987266 720.081208 " transform="matrix(0.0243037,-0.00600006,0.00605958,0.0240649,-52.862229,20.130571)"/>
<path style="fill:none;stroke-width:20;stroke-linecap:round;stroke-linejoin:round;stroke:rgb(0%,0%,0%);stroke-opacity:1;stroke-miterlimit:4;" d="M 313.931482 1280.001075 C 449.921672 1766.990533 1230.929553 1729.978074 1286.91634 1150.06372 C 1420.099393 1657.055656 2069.951597 1638.943176 2250.076218 1100.136276 C 2430.044887 1638.943176 3079.897091 1657.055656 3213.080144 1150.06372 C 3269.066931 1729.978074 4050.074812 1766.990533 4186.065002 1280.001075 " transform="matrix(0.0250478,0,0,0.0248016,0.00000000000000811,0)"/>
<path style="fill-rule:nonzero;fill:rgb(100%,78.823529%,0%);fill-opacity:1;stroke-width:20;stroke-linecap:round;stroke-linejoin:round;stroke:rgb(0%,0%,0%);stroke-opacity:1;stroke-miterlimit:4;" d="M 404.071769 1695.170613 C 1621.433493 1439.705898 2878.562991 1439.705898 4095.924715 1695.170613 C 4136.004393 1704.935602 4115.886578 1807.940488 4075.962852 1798.017999 C 2871.389196 1548.380777 1628.607288 1548.380777 424.033632 1798.017999 C 384.109906 1807.940488 363.992091 1704.935602 404.071769 1695.170613 M 544.896473 2350.054884 C 505.128699 2359.977373 481.891843 2252.089993 521.971521 2242.010005 C 1663.228643 2018.675253 2836.767841 2018.675253 3978.024963 2242.010005 C 4018.104641 2252.089993 3994.867785 2359.977373 3955.100011 2350.054884 " transform="matrix(0.0250478,0,0,0.0248016,0.00000000000000811,0)"/>
<path style="fill-rule:nonzero;fill:rgb(100%,78.823529%,0%);fill-opacity:1;stroke-width:20;stroke-linecap:round;stroke-linejoin:round;stroke:rgb(0%,0%,0%);stroke-opacity:1;stroke-miterlimit:4;" d="M 1909.944791 2193.972558 L 1909.944791 1760.060541 C 1909.944791 1572.32075 2062.153994 1420.018419 2250.076218 1420.018419 C 2437.84249 1420.018419 2590.051693 1572.32075 2590.051693 1760.060541 L 2590.051693 2193.972558 M 2019.890988 2190.035062 L 2019.890988 1760.060541 C 2019.890988 1632.958182 2122.975295 1529.953297 2250.076218 1529.953297 C 2377.021189 1529.953297 2480.105496 1632.958182 2480.105496 1760.060541 L 2480.105496 2190.035062 " transform="matrix(0.0250478,0,0,0.0248016,0.00000000000000811,0)"/>
<path style="fill-rule:nonzero;fill:rgb(100%,78.823529%,0%);fill-opacity:1;stroke-width:20;stroke-linecap:round;stroke-linejoin:round;stroke:rgb(0%,0%,0%);stroke-opacity:1;stroke-miterlimit:4;" d="M 2150.110952 1369.933475 L 2349.885532 1369.933475 L 2320.09869 1550.113275 L 2179.897794 1550.113275 Z M 2150.110952 1369.933475 " transform="matrix(0.0250478,0,0,0.0248016,0.00000000000000811,0)"/>
<path style="fill:none;stroke-width:25;stroke-linecap:round;stroke-linejoin:round;stroke:rgb(0%,0%,0%);stroke-opacity:1;stroke-miterlimit:4;" d="M 2250.076218 1552.948272 L 2250.076218 2205.155046 " transform="matrix(0.0250478,0,0,0.0248016,0.00000000000000811,0)"/>
<path style="fill-rule:nonzero;fill:rgb(100%,78.823529%,0%);fill-opacity:1;stroke-width:35;stroke-linecap:round;stroke-linejoin:round;stroke:rgb(0%,0%,0%);stroke-opacity:1;stroke-miterlimit:4;" d="M 554.877404 2355.094879 C 1674.769095 2140.265118 2825.227389 2140.265118 3945.11908 2355.094879 " transform="matrix(0.0250478,0,0,0.0248016,0.00000000000000811,0)"/>
<path style="fill-rule:nonzero;fill:rgb(100%,100%,100%);fill-opacity:1;stroke-width:60;stroke-linecap:butt;stroke-linejoin:miter;stroke:rgb(0%,0%,0%);stroke-opacity:1;stroke-miterlimit:4;" d="M 4095.924715 2389.90234 L 396.118214 2389.90234 L 396.118214 5489.971389 C 396.118214 5900.100933 396.118214 6289.912999 946.161104 6609.952643 L 2246.021465 7340.12183 L 3546.037777 6609.952643 C 4105.905647 6289.912999 4095.924715 5900.100933 4095.924715 5489.971389 Z M 4095.924715 2389.90234 " transform="matrix(0.0250478,0,0,0.0248016,0.00000000000000811,0)"/>
<path style=" stroke:none;fill-rule:nonzero;fill:rgb(95.294118%,23.137255%,11.372549%);fill-opacity:1;" d="M 61.941406 77.257812 C 60.542969 76.585938 58.011719 76.984375 55.683594 76.613281 C 50.996094 75.867188 50.421875 74.554688 50.421875 73.585938 C 50.394531 72.570312 49.46875 72.523438 49.46875 73.609375 C 49.496094 80.058594 59.289062 76.761719 62.070312 78.421875 M 30.085938 75.046875 C 30.105469 73.316406 28.902344 72.199219 27.855469 72.101562 C 28.480469 72.816406 28.601562 73.859375 28.703125 74.875 C 28.5 73.4375 27.425781 72.496094 26.5 72.445312 C 27.003906 72.964844 27.277344 74.03125 27.324219 75.074219 C 27.175781 74.28125 26.421875 73.089844 25.175781 72.964844 C 25.75 73.558594 25.925781 74.675781 26.050781 75.695312 C 25.875 74.824219 24.972656 73.832031 23.972656 73.761719 C 24.394531 74.109375 24.746094 75.375 24.824219 76.339844 C 24.695312 75.941406 23.992188 74.976562 22.894531 74.851562 C 23.46875 75.375 23.71875 76.636719 23.820312 77.628906 M 28.199219 101.289062 C 27.90625 99.929688 26.703125 98.484375 25.347656 98.664062 C 25.976562 99.085938 26.449219 100.671875 26.625 101.6875 C 26.199219 100.542969 25.148438 99.328125 23.894531 99.480469 C 24.574219 100.074219 24.972656 101.539062 25.226562 102.632812 C 24.542969 101.367188 23.71875 100.421875 22.492188 100.570312 C 23.320312 101.367188 23.621094 102.753906 23.820312 103.820312 C 23.417969 102.925781 22.492188 101.835938 21.238281 101.960938 C 22.015625 102.652344 22.34375 104.167969 22.617188 105.285156 C 22.113281 104.613281 21.367188 103.667969 20.1875 103.769531 C 20.964844 104.511719 21.316406 105.976562 21.640625 107.09375 M 32.214844 149.828125 C 30.882812 149.035156 29.054688 149.308594 28.199219 150.394531 C 29.152344 150.222656 30.558594 150.746094 31.109375 151.1875 C 30.207031 150.621094 28.328125 150.964844 27.605469 151.960938 C 28.453125 151.738281 29.832031 152.308594 30.558594 152.730469 C 29.605469 152.402344 28.128906 152.480469 27.203125 153.597656 C 27.976562 153.425781 29.253906 153.847656 30.085938 154.320312 C 28.902344 154.042969 27.753906 154.492188 27.074219 155.285156 C 28.105469 155.0625 29.253906 155.65625 29.957031 155.976562 C 28.628906 155.949219 27.828125 156.472656 27.355469 157.019531 C 28.199219 156.84375 29.503906 157.292969 30.457031 157.789062 M 67.050781 157.988281 C 65.324219 157.765625 63.898438 158.804688 63.46875 160.019531 C 63.949219 159.648438 65.449219 159.425781 66.429688 159.722656 C 65.074219 159.648438 63.71875 160.738281 63.445312 161.734375 C 64 161.285156 65.75 161.160156 66.402344 161.433594 C 65.175781 161.484375 64 162.398438 63.648438 163.421875 C 64.222656 163.046875 65.828125 162.898438 66.730469 163.121094 C 65.398438 163.320312 64.449219 164.257812 64.148438 165.128906 C 64.953125 164.609375 66 164.660156 67.304688 164.730469 C 65.949219 165.230469 65.496094 165.800781 65.046875 166.691406 C 65.796875 166.222656 67.128906 166.195312 68.429688 166.296875 "/>
<path style=" stroke:none;fill-rule:nonzero;fill:rgb(0%,0%,0%);fill-opacity:1;" d="M 58.085938 66.9375 L 51.976562 67.160156 C 51.675781 67.1875 51.445312 67.339844 51.445312 67.683594 C 51.476562 69.863281 51.898438 71.277344 53.476562 72.421875 C 53.273438 73.636719 53.402344 74.253906 54.679688 75.273438 C 54.800781 74.28125 55.203125 73.832031 55.832031 73.410156 C 55.882812 73.4375 55.933594 73.4375 55.957031 73.460938 C 55.882812 73.910156 55.882812 74.382812 55.984375 74.652344 C 56.234375 75.347656 57.460938 75.375 57.785156 74.875 C 58.085938 75.597656 58.710938 75.621094 59.210938 75.621094 C 59.742188 75.621094 59.992188 75.246094 60.164062 74.902344 C 60.464844 75.148438 60.765625 75.417969 61.039062 75.769531 C 61.917969 76.960938 62.070312 78.5 62.070312 79.960938 C 61.792969 79.988281 61.519531 80.007812 61.238281 80.035156 L 61.238281 79.4375 C 61.21875 78.59375 59.238281 78.449219 58.789062 79.164062 C 58.285156 78.621094 56.730469 78.722656 56.730469 79.585938 L 56.730469 79.859375 C 56.378906 79.414062 56.105469 78.945312 55.882812 78.472656 C 55.253906 78.871094 54.878906 79.164062 54.980469 80.582031 C 54.703125 80.601562 54.429688 80.628906 54.179688 80.652344 C 54.199219 82.289062 54.929688 82.738281 60.839844 82.613281 C 60.988281 84.25 59.339844 85.171875 58.113281 85.9375 C 54.902344 87.746094 51.523438 89.734375 49.695312 93.058594 C 48.164062 95.683594 47.792969 98.808594 47.964844 101.835938 L 49.71875 101.066406 L 49.921875 102.007812 C 46.765625 103.496094 41.003906 106.523438 37.21875 108.257812 C 36.292969 108.679688 33.890625 109.273438 33.390625 108.429688 C 31.660156 105.484375 30.285156 103.246094 28.277344 100.992188 C 27.253906 99.828125 20.4375 105.40625 21.691406 107.292969 C 24.542969 111.582031 29.203125 117.734375 36.96875 117.78125 C 45.011719 117.832031 52 114.90625 53.527344 114.457031 L 53.855469 115.472656 C 52.824219 115.921875 51.925781 116.246094 50.84375 116.59375 C 52.25 122.050781 53.878906 124.183594 57.660156 127.507812 L 56.882812 128.078125 C 56.207031 127.679688 55.054688 126.414062 54.429688 125.820312 C 46.386719 129.585938 43.382812 133.355469 41.453125 137.253906 C 39.324219 141.941406 39.726562 147.269531 40.628906 152.210938 C 40.800781 153.027344 39.898438 153.425781 39.226562 153.175781 C 37.367188 152.753906 36.34375 150.917969 34.566406 150.25 C 33.761719 149.902344 32.710938 149.507812 31.835938 149.652344 C 30.40625 149.902344 28.882812 157.042969 30.335938 157.738281 C 33.039062 159.050781 35.992188 159.324219 39.003906 160.863281 C 40.980469 161.65625 42.882812 162.949219 45.136719 162.597656 C 46.414062 162.476562 47.691406 161.605469 47.8125 160.269531 C 48.945312 155.457031 50.523438 150.351562 54.226562 146.875 C 56.007812 145.140625 58.3125 143.75 60.59375 142.6875 C 59.691406 139.261719 59.011719 135.835938 59.089844 132.269531 L 60.191406 132.21875 C 60.988281 145.808594 64.652344 148.664062 71.085938 154.984375 C 71.734375 155.628906 71.683594 156.84375 70.738281 157.214844 C 69.484375 157.835938 68.003906 157.863281 66.578125 157.9375 C 65.046875 158.007812 66.199219 166.394531 68.457031 166.316406 C 72.414062 166.195312 76.523438 163.144531 78.902344 160.144531 C 79.90625 158.902344 81.101562 157.664062 82.054688 156.449219 C 83.230469 154.933594 81.957031 153.175781 81.605469 151.789062 C 80.628906 147.820312 80.175781 136.410156 80.128906 134.820312 L 81.53125 134.847656 L 81.734375 131.96875 C 77.546875 126.835938 78.222656 118.796875 76.492188 113.613281 C 75.820312 111.503906 75.066406 109.324219 75.066406 107.09375 C 75.066406 104.070312 78.523438 98.386719 78.449219 93.328125 C 78.421875 91.199219 77.222656 88.417969 77.246094 87.152344 C 77.273438 83.484375 79.402344 84.277344 79.351562 76.636719 C 79.324219 74.53125 79.074219 72.964844 78.523438 70.808594 C 82.257812 66.917969 77.125 63.019531 74.164062 65.453125 C 71.785156 64.828125 71.488281 64.214844 66.828125 64.214844 C 62.84375 64.214844 60.566406 65.28125 58.085938 66.917969 M 50.875 89.683594 C 48.242188 92.878906 46.765625 94.496094 46.867188 102.257812 C 22.042969 88.21875 29.304688 86.207031 23.871094 77.828125 C 23.019531 76.511719 28.550781 73.460938 30.308594 74.753906 C 33.839844 77.335938 32.535156 82.191406 35.46875 84.398438 C 38.371094 86.582031 43.554688 87.550781 50.875 89.683594 M 66.027344 71.652344 C 65.648438 71.652344 64.972656 71.449219 64.773438 71.179688 C 62.59375 67.882812 62.042969 69.070312 61.71875 70.214844 C 61.441406 71.230469 60.242188 71.257812 60.59375 69.890625 C 61.46875 66.542969 63.847656 67.015625 66.800781 71.652344 M 73.1875 68.328125 C 73.789062 67.53125 74.714844 66.765625 75.71875 66.445312 C 77.195312 65.945312 77.796875 67.140625 76.621094 67.53125 C 75.648438 67.953125 74.816406 68.554688 74.113281 69.246094 M 53.753906 72.59375 C 54.128906 72.816406 54.652344 73.089844 55.433594 73.316406 C 55.003906 73.660156 54.601562 74.160156 54.480469 74.703125 C 53.804688 74.230469 53.527344 73.367188 53.753906 72.59375 M 57.761719 73.910156 C 57.761719 74.230469 57.683594 74.554688 57.582031 74.703125 C 57.332031 75.097656 56.40625 75.074219 56.207031 74.53125 C 56.132812 74.304688 56.132812 73.910156 56.234375 73.539062 C 56.730469 73.660156 57.261719 73.761719 57.761719 73.910156 M 58.0625 73.980469 C 58.738281 74.183594 59.390625 74.402344 59.964844 74.777344 C 59.839844 75.074219 59.613281 75.375 59.160156 75.375 C 58.757812 75.375 58.3125 75.347656 58.0625 74.875 C 57.933594 74.625 57.984375 74.28125 58.0625 73.980469 M 55.230469 80.554688 C 55.152344 79.859375 55.230469 79.265625 55.785156 78.871094 C 56.054688 79.367188 56.355469 79.835938 56.707031 80.257812 L 56.707031 80.429688 M 56.960938 80.417969 L 56.960938 79.636719 C 56.960938 78.820312 58.710938 78.871094 58.738281 79.636719 L 58.738281 80.257812 M 58.960938 80.230469 L 58.960938 79.539062 C 58.960938 78.722656 60.988281 78.773438 60.988281 79.515625 L 60.988281 80.058594 "/>
</g>
</svg>
