<?xml version="1.0" encoding="UTF-8"?>
<svg xmlns="http://www.w3.org/2000/svg" xmlns:xlink="http://www.w3.org/1999/xlink" width="268pt" height="90pt" viewBox="0 0 268 90" version="1.1">
<g id="surface1">
<path style=" stroke:none;fill-rule:nonzero;fill:rgb(92.941176%,9.803922%,18.039216%);fill-opacity:1;" d="M 71.175781 0 L 71.175781 34.726562 L 97.355469 34.726562 L 97.355469 43.507812 L 53.320312 43.507812 L 53.320312 34.726562 L 0 34.726562 L 0 43.507812 L 53.292969 43.507812 L 53.292969 90.199219 L 61.761719 90.199219 L 61.761719 51.792969 L 71.175781 51.792969 L 71.175781 90.199219 L 79.621094 90.199219 L 79.621094 51.792969 L 88.910156 51.792969 L 88.910156 90.199219 L 97.355469 90.199219 L 97.355469 72.839844 L 267.828125 72.839844 L 267.828125 0 Z M 48.785156 17.21875 C 45.363281 17.21875 42.582031 20.011719 42.582031 23.460938 C 42.582031 26.902344 45.363281 29.703125 48.785156 29.703125 C 52.203125 29.703125 54.972656 26.902344 54.972656 23.460938 C 54.972656 20.011719 52.203125 17.21875 48.785156 17.21875 Z M 0 51.625 L 0 90.199219 L 8.429688 90.199219 L 8.429688 51.625 Z M 17.792969 51.625 L 17.792969 90.199219 L 26.238281 90.199219 L 26.238281 51.625 Z M 35.589844 51.625 L 35.589844 90.199219 L 44.03125 90.199219 L 44.03125 51.625 Z M 35.589844 51.625 "/>
<path style=" stroke:none;fill-rule:nonzero;fill:rgb(100%,100%,100%);fill-opacity:1;" d="M 120.148438 23.496094 L 120.148438 35.183594 C 120.148438 35.183594 122.128906 35.183594 123.574219 35.148438 C 127.757812 35.042969 131.535156 33.664062 131.6875 28.882812 C 131.792969 25.480469 129.164062 23.777344 126.5625 23.597656 C 124.074219 23.429688 120.148438 23.496094 120.148438 23.496094 M 120.148438 39.046875 L 120.148438 51.835938 C 120.148438 51.835938 122.828125 51.925781 124.546875 51.855469 C 129.574219 51.640625 132.570312 49.203125 132.351562 45.195312 C 132.140625 41.257812 129.382812 39.464844 125.179688 39.097656 C 123.234375 38.925781 120.148438 39.046875 120.148438 39.046875 M 112.414062 22.800781 C 111.179688 22.625 110.402344 22.394531 110.402344 22.394531 L 110.402344 19.4375 C 110.402344 19.4375 112.761719 19.492188 115.46875 19.527344 C 118.175781 19.5625 120.53125 19.351562 123.84375 19.351562 C 129.96875 19.351562 136.671875 20.195312 136.996094 27.992188 C 137.28125 34.722656 130.59375 36.671875 130.59375 36.671875 C 130.59375 36.671875 138.054688 37.703125 137.808594 45.632812 C 137.460938 56.761719 123.777344 56.011719 123.777344 56.011719 L 110.402344 56.011719 L 110.402344 53.144531 L 114.800781 52.296875 L 114.800781 23.105469 C 114.800781 23.105469 113.996094 23.03125 112.414062 22.800781 M 175.898438 35.042969 L 175.898438 29.941406 C 175.898438 29.941406 172.890625 29.941406 170.976562 30.007812 C 169.289062 30.074219 166.648438 30.261719 166.648438 30.261719 L 166.648438 33.0625 L 170.976562 33.625 L 170.976562 56.011719 L 176.035156 56.011719 L 176.035156 44.179688 C 176.035156 44.179688 175.828125 38.566406 178.433594 35.773438 C 180.257812 33.800781 184.09375 34.582031 184.09375 34.582031 L 184.09375 29.65625 C 184.09375 29.65625 181.015625 29.25 178.710938 30.667969 C 176.53125 32.007812 175.898438 35.042969 175.898438 35.042969 M 153.570312 32.863281 C 159.320312 33.050781 158.734375 39.027344 158.734375 39.027344 L 147.476562 39.027344 C 147.476562 39.027344 148.042969 32.6875 153.570312 32.863281 M 147.128906 42.90625 L 163.835938 42.90625 C 163.835938 42.90625 165.488281 29.09375 153.671875 29.375 C 143.1875 29.621094 142.101562 39.078125 142.023438 43.046875 C 141.96875 46.285156 142.695312 51.863281 146.890625 54.6875 C 148.609375 55.851562 152.097656 56.664062 155.535156 56.511719 C 158.625 56.367188 162.707031 54.847656 162.707031 54.847656 L 162.707031 50.84375 C 162.707031 50.84375 159.382812 52.367188 154.933594 52.4375 C 146.210938 52.578125 147.128906 42.90625 147.128906 42.90625 M 189.195312 21.257812 C 189.195312 21.257812 187.949219 21.066406 187.152344 20.960938 C 186.265625 20.851562 184.867188 20.726562 184.867188 20.726562 L 184.867188 18.035156 C 184.867188 18.035156 188.027344 17.828125 190.039062 17.789062 C 191.746094 17.753906 194.398438 17.789062 194.398438 17.789062 L 194.398438 52.4375 L 198.761719 53.144531 L 198.761719 56.011719 L 184.867188 56.011719 L 184.867188 53.144531 L 189.195312 52.4375 Z M 205.832031 22.554688 C 205.832031 20.628906 207.382812 19.0625 209.292969 19.0625 C 211.210938 19.0625 212.761719 20.628906 212.761719 22.554688 C 212.761719 24.484375 211.210938 26.046875 209.292969 26.046875 C 207.382812 26.046875 205.832031 24.484375 205.832031 22.554688 M 206.957031 33.695312 L 202.527344 33.09375 L 202.527344 30.328125 C 204.25 30.175781 205.109375 30.105469 206.957031 30.03125 C 209.1875 29.941406 210.875 29.867188 211.984375 29.941406 L 211.984375 52.4375 L 216.628906 53.144531 L 216.628906 56.011719 L 202.527344 56.011719 L 202.527344 53.144531 L 206.957031 52.4375 Z M 224.085938 56.011719 L 229.226562 56.011719 L 229.226562 43.507812 C 229.226562 43.507812 229.003906 41.148438 229.855469 38.65625 C 230.675781 36.242188 232.5625 33.5 236.363281 33.273438 C 240.8125 32.996094 240.542969 37.949219 240.542969 37.949219 L 240.542969 56.011719 L 245.71875 56.011719 L 245.71875 37.382812 C 245.71875 37.382812 246.140625 29.941406 239.25 29.65625 C 230.851562 29.3125 229.226562 34.636719 229.226562 34.636719 L 229.226562 29.941406 C 229.226562 29.941406 227.417969 29.875 224.515625 30.039062 C 221.753906 30.199219 219.757812 30.382812 219.757812 30.382812 L 219.757812 33.148438 L 224.085938 33.664062 L 224.085938 56.011719 "/>
</g>
</svg>
