<?xml version="1.0" encoding="UTF-8"?>
<svg xmlns="http://www.w3.org/2000/svg" xmlns:xlink="http://www.w3.org/1999/xlink" width="79pt" height="129pt" viewBox="0 0 79 129" version="1.1">
<g id="surface1">
<path style="fill-rule:nonzero;fill:rgb(100%,78.823529%,0%);fill-opacity:1;stroke-width:20;stroke-linecap:round;stroke-linejoin:round;stroke:rgb(0%,0%,0%);stroke-opacity:1;stroke-miterlimit:4;" d="M 550.039557 2370.018471 L 250.098892 985.064801 L 469.936709 930.015746 L 250.098892 985.064801 L 10.012856 300.084484 C 143.072587 339.916727 250.098892 239.888566 313.958663 379.972747 C 321.078916 349.09157 343.997231 356.923752 348.892405 326.937682 C 378.930973 503.049903 558.049842 490.070858 331.091772 823.945615 L 345.109771 829.987585 C 473.941851 605.987161 485.957278 706.015322 570.955301 620.08509 C 582.080696 672.001272 609.004153 691.022287 582.080696 735.106286 C 720.925633 740.924479 764.092168 1083.974079 600.103837 1149.093084 C 613.899328 1203.918362 588.08841 1218.016291 588.978441 1260.981407 C 509.988133 1177.065165 410.972112 1243.079276 333.094343 1145.960211 C 376.705894 1368.841751 610.784217 1512.953912 855.765427 1467.974806 C 1100.746638 1422.9957 1263.844937 1205.932352 1220.010878 983.050812 C 1181.962025 1100.981105 1066.035403 1075.023014 1023.091377 1181.093144 C 1007.960839 1141.037125 979.03481 1137.009145 971.914557 1081.064983 C 795.910799 1079.050993 712.915348 744.057352 839.967366 687.889414 C 799.02591 657.008236 817.939082 629.036156 809.928797 576.896197 C 920.070214 627.022166 896.039359 529.007994 1096.073972 691.917393 L 1106.976859 680.952338 C 774.995055 450.909944 946.993671 388.028706 912.059929 224.000424 C 928.080498 249.958515 946.103639 234.96548 963.014241 260.923571 C 955.003956 142.098171 1102.081685 145.902374 1153.926028 76.979167 C 1222.013449 130.909339 1363.973497 91.972202 1383.999209 209.007389 C 1394.902097 179.021318 1416.040348 189.986374 1424.940665 160.895409 C 1432.950949 339.021621 1612.95985 347.972687 1347.062896 652.08515 L 1359.968354 659.022226 C 1515.056369 452.923934 1515.056369 554.070979 1610.067247 479.105802 C 1614.072389 531.021984 1638.993275 552.952095 1606.952136 593.903222 C 1744.017009 616.952217 1744.907041 962.910913 1574.020965 1006.994913 C 1580.91871 1062.939075 1553.995253 1073.90413 1549.100079 1117.093023 C 1481.012658 1024.001938 1375.098892 1077.93211 1309.904074 972.085756 C 1343.502769 1221.372941 1540.867286 1398.827822 1769.382911 1384.729893 C 1997.898536 1370.855741 2185.02769 1169.680535 2205.053402 917.036701 C 2152.986551 1030.043907 2041.065071 989.987888 1984.993078 1090.016049 C 1974.980222 1047.946039 1946.944225 1041.008963 1946.944225 983.945918 C 1772.053006 960.896923 1730.889043 618.0711 1863.948774 578.01508 C 1827.01246 541.98704 1849.040744 516.924055 1847.038172 463.88899 C 1950.059335 526.994004 1938.043908 426.965843 2116.940269 612.924237 L 2128.955696 603.973171 C 1827.902492 334.993641 2005.01879 303.888687 1991.890823 125.986252 C 2003.90625 153.958333 2023.931962 140.979288 2037.94996 168.951369 C 2043.957674 49.902192 2189.922864 72.05608 2250 10.069949 C 2310.077136 72.05608 2456.042326 49.902192 2462.05004 168.951369 C 2476.068038 140.979288 2496.09375 153.958333 2508.109177 125.986252 C 2494.98121 303.888687 2672.097508 334.993641 2371.044304 603.973171 L 2383.059731 612.924237 C 2561.956092 426.965843 2549.940665 526.994004 2652.961828 463.88899 C 2650.959256 516.924055 2672.98754 541.98704 2636.051226 578.01508 C 2769.110957 618.0711 2727.946994 960.896923 2553.055775 983.945918 C 2553.055775 1041.008963 2525.019778 1047.946039 2515.006922 1090.016049 C 2458.934929 989.987888 2347.013449 1030.043907 2294.946598 917.036701 C 2314.97231 1169.680535 2502.101464 1370.855741 2730.617089 1384.729893 C 2959.132714 1398.827822 3156.497231 1221.372941 3190.095926 972.085756 C 3124.901108 1077.93211 3018.987342 1024.001938 2950.899921 1117.093023 C 2946.004747 1073.90413 2919.08129 1062.939075 2925.979035 1006.994913 C 2755.092959 962.910913 2755.982991 616.952217 2893.047864 593.903222 C 2861.006725 552.952095 2885.927611 531.021984 2889.932753 479.105802 C 2984.943631 554.070979 2984.943631 452.923934 3140.031646 659.022226 L 3152.937104 652.08515 C 2887.04015 347.972687 3067.049051 339.021621 3075.059335 160.895409 C 3083.959652 189.986374 3105.097903 179.021318 3116.000791 209.007389 C 3136.026503 91.972202 3277.986551 130.909339 3346.073972 76.979167 C 3397.918315 145.902374 3544.996044 142.098171 3536.985759 260.923571 C 3553.896361 234.96548 3571.919502 249.958515 3587.940071 224.000424 C 3553.006329 398.993762 3725.004945 450.909944 3393.023141 680.952338 L 3403.926028 691.917393 C 3603.960641 529.007994 3579.929786 627.022166 3690.071203 576.896197 C 3682.060918 629.036156 3700.97409 657.008236 3660.032634 687.889414 C 3787.084652 744.057352 3704.089201 1079.050993 3528.085443 1081.064983 C 3520.96519 1137.009145 3492.039161 1141.037125 3476.908623 1181.093144 C 3433.964597 1075.023014 3318.037975 1100.981105 3279.989122 983.050812 C 3236.155063 1205.932352 3399.253362 1422.9957 3644.234573 1467.974806 C 3889.215783 1512.953912 4123.294106 1368.841751 4166.905657 1145.960211 C 4089.027888 1243.079276 3990.011867 1177.065165 3911.021559 1260.981407 C 3911.91159 1218.016291 3886.100672 1203.918362 3899.896163 1149.093084 C 3735.907832 1083.974079 3779.074367 740.924479 3917.919304 735.106286 C 3890.995847 691.022287 3917.919304 672.001272 3929.044699 620.08509 C 4014.042722 706.015322 4026.058149 605.987161 4154.890229 829.987585 L 4168.908228 823.945615 C 3941.950158 490.070858 4121.069027 503.049903 4151.107595 326.937682 C 4125.964201 356.923752 4178.921084 349.09157 4186.041337 379.972747 C 4249.901108 239.888566 4356.927413 339.916727 4489.987144 300.084484 L 4249.901108 985.064801 L 4030.063291 930.015746 L 4249.901108 985.064801 L 3949.960443 2370.018471 M 473.05182 2020.031795 C 1645.891021 1783.723656 2854.108979 1783.723656 4026.94818 2020.031795 M 793.018196 1962.073643 L 837.964794 2184.955184 M 1052.907437 1691.080124 L 1090.066258 1917.094537 M 1375.988924 1885.989583 L 1404.024921 2114.017987 M 1644.110957 1632.003089 L 1661.91159 1860.926599 M 2838.08841 1860.926599 L 2855.889043 1632.003089 M 3095.975079 2114.017987 L 3124.011076 1885.989583 M 3409.933742 1917.094537 L 3447.092563 1691.080124 M 3662.035206 2184.955184 L 3706.981804 1962.073643 " transform="matrix(0.0175556,0,0,0.017456,0,0)"/>
<path style="fill-rule:nonzero;fill:rgb(100%,78.823529%,0%);fill-opacity:1;stroke-width:20;stroke-linecap:round;stroke-linejoin:round;stroke:rgb(0%,0%,0%);stroke-opacity:1;stroke-miterlimit:4;" d="M 2019.92682 740.029373 L 2480.07318 740.029373 M 2250 499.91703 L 2250 699.973353 " transform="matrix(0.0175556,0,0,0.017456,0,0)"/>
<path style="fill-rule:nonzero;fill:rgb(100%,78.823529%,0%);fill-opacity:1;stroke-width:20;stroke-linecap:round;stroke-linejoin:round;stroke:rgb(0%,0%,0%);stroke-opacity:1;stroke-miterlimit:4;" d="M 2334.998022 719.889474 C 2334.998022 766.88257 2296.949169 804.9246 2250 804.9246 C 2203.050831 804.9246 2165.001978 766.88257 2165.001978 719.889474 C 2165.001978 673.120155 2203.050831 635.078125 2250 635.078125 C 2296.949169 635.078125 2334.998022 673.120155 2334.998022 719.889474 Z M 2334.998022 719.889474 " transform="matrix(0.0175556,0,0,0.017456,0,0)"/>
<path style="fill-rule:nonzero;fill:rgb(100%,78.823529%,0%);fill-opacity:1;stroke-width:20;stroke-linecap:round;stroke-linejoin:round;stroke:rgb(0%,0%,0%);stroke-opacity:1;stroke-miterlimit:4;" d="M 2019.98463 740.059347 L 2479.985418 739.942645 M 2250.120251 500.097962 L 2250.016653 700.091193 " transform="matrix(0.0174247,0.00212735,-0.00213948,0.0173259,19.549783,-3.615515)"/>
<path style="fill-rule:nonzero;fill:rgb(100%,78.823529%,0%);fill-opacity:1;stroke-width:20;stroke-linecap:round;stroke-linejoin:round;stroke:rgb(0%,0%,0%);stroke-opacity:1;stroke-miterlimit:4;" d="M 2334.970876 720.096844 C 2334.901267 767.000482 2296.97607 805.024772 2249.888643 804.944495 C 2203.049336 805.059209 2164.961193 766.898983 2165.030801 719.995345 C 2165.10041 673.091706 2203.025607 635.067416 2250.085763 634.925585 C 2296.952341 635.032979 2335.013213 672.971097 2334.970876 720.096844 Z M 2334.970876 720.096844 " transform="matrix(0.0174247,0.00212735,-0.00213948,0.0173259,19.549783,-3.615515)"/>
<path style="fill-rule:nonzero;fill:rgb(100%,78.823529%,0%);fill-opacity:1;stroke-width:20;stroke-linecap:round;stroke-linejoin:round;stroke:rgb(0%,0%,0%);stroke-opacity:1;stroke-miterlimit:4;" d="M 2020.014582 739.942645 L 2480.01537 740.059347 M 2249.879749 500.097962 L 2249.983347 700.091193 " transform="matrix(0.0174247,-0.00212735,0.00213948,0.0173259,-18.960929,5.957577)"/>
<path style="fill-rule:nonzero;fill:rgb(100%,78.823529%,0%);fill-opacity:1;stroke-width:20;stroke-linecap:round;stroke-linejoin:round;stroke:rgb(0%,0%,0%);stroke-opacity:1;stroke-miterlimit:4;" d="M 2334.969199 719.995345 C 2335.038807 766.898983 2296.950664 805.059209 2250.111357 804.944495 C 2203.02393 805.024772 2165.098733 767.000482 2165.029124 720.096844 C 2164.986787 672.971097 2203.047659 635.032979 2249.914237 634.925585 C 2296.974393 635.067416 2334.89959 673.091706 2334.969199 719.995345 Z M 2334.969199 719.995345 " transform="matrix(0.0174247,-0.00212735,0.00213948,0.0173259,-18.960929,5.957577)"/>
<path style="fill-rule:nonzero;fill:rgb(100%,78.823529%,0%);fill-opacity:1;stroke-width:20;stroke-linecap:round;stroke-linejoin:round;stroke:rgb(0%,0%,0%);stroke-opacity:1;stroke-miterlimit:4;" d="M 2334.952913 719.901169 C 2334.985931 766.940899 2297.007869 805.007674 2249.987721 804.969123 C 2202.967574 804.930572 2165.04405 766.876752 2165.065169 720.054152 C 2165.032151 673.014423 2203.010213 634.947648 2250.03036 634.986199 C 2297.050508 635.02475 2334.974032 673.07857 2334.952913 719.901169 Z M 2334.952913 719.901169 " transform="matrix(0.0170341,0.00422299,-0.00424707,0.0169375,39.396978,-4.83507)"/>
<path style="fill-rule:nonzero;fill:rgb(100%,78.823529%,0%);fill-opacity:1;stroke-width:20;stroke-linecap:round;stroke-linejoin:round;stroke:rgb(0%,0%,0%);stroke-opacity:1;stroke-miterlimit:4;" d="M 2334.934831 720.054152 C 2334.95595 766.876752 2297.032426 804.930572 2250.012279 804.969123 C 2202.992131 805.007674 2165.014069 766.940899 2165.047087 719.901169 C 2165.025968 673.07857 2202.949492 635.02475 2249.96964 634.986199 C 2296.989787 634.947648 2334.967849 673.014423 2334.934831 720.054152 Z M 2334.934831 720.054152 " transform="matrix(0.0170341,-0.00422299,0.00424707,0.0169375,-37.050341,14.168402)"/>
<path style="fill:none;stroke-width:20;stroke-linecap:round;stroke-linejoin:round;stroke:rgb(0%,0%,0%);stroke-opacity:1;stroke-miterlimit:4;" d="M 313.958663 1280.002422 C 449.910997 1766.940407 1230.913766 1730.01726 1286.985759 1149.98819 C 1420.045491 1657.066073 2069.9911 1638.940165 2250 1100.085998 C 2430.0089 1638.940165 3079.954509 1657.066073 3213.014241 1149.98819 C 3269.086234 1730.01726 4050.089003 1766.940407 4186.041337 1280.002422 " transform="matrix(0.0175556,0,0,0.017456,0,0)"/>
<path style="fill-rule:nonzero;fill:rgb(100%,78.823529%,0%);fill-opacity:1;stroke-width:20;stroke-linecap:round;stroke-linejoin:round;stroke:rgb(0%,0%,0%);stroke-opacity:1;stroke-miterlimit:4;" d="M 404.074367 1695.108103 C 1621.41515 1439.778949 2878.58485 1439.778949 4095.925633 1695.108103 C 4135.977057 1704.954276 4115.951345 1807.891533 4075.899921 1798.045361 C 2871.464597 1548.310623 1628.535403 1548.310623 424.100079 1798.045361 C 384.048655 1807.891533 364.022943 1704.954276 404.074367 1695.108103 M 544.921875 2350.10235 C 505.092959 2359.948522 481.952136 2252.088178 522.00356 2242.018229 C 1663.246638 2018.689135 2836.753362 2018.689135 3977.99644 2242.018229 C 4018.047864 2252.088178 3994.907041 2359.948522 3955.078125 2350.10235 " transform="matrix(0.0175556,0,0,0.017456,0,0)"/>
<path style="fill-rule:nonzero;fill:rgb(100%,78.823529%,0%);fill-opacity:1;stroke-width:20;stroke-linecap:round;stroke-linejoin:round;stroke:rgb(0%,0%,0%);stroke-opacity:1;stroke-miterlimit:4;" d="M 1910.007911 2193.90625 L 1910.007911 1760.003331 C 1910.007911 1572.254724 2062.203323 1420.086604 2250 1420.086604 C 2437.796677 1420.086604 2589.992089 1572.254724 2589.992089 1760.003331 L 2589.992089 2193.90625 M 2019.92682 2190.102047 L 2019.92682 1760.003331 C 2019.92682 1632.898195 2122.947983 1529.960938 2250 1529.960938 C 2377.052017 1529.960938 2480.07318 1632.898195 2480.07318 1760.003331 L 2480.07318 2190.102047 " transform="matrix(0.0175556,0,0,0.017456,0,0)"/>
<path style="fill-rule:nonzero;fill:rgb(100%,78.823529%,0%);fill-opacity:1;stroke-width:20;stroke-linecap:round;stroke-linejoin:round;stroke:rgb(0%,0%,0%);stroke-opacity:1;stroke-miterlimit:4;" d="M 2150.093948 1369.960635 L 2349.906052 1369.960635 L 2320.089992 1550.100836 L 2179.910008 1550.100836 Z M 2150.093948 1369.960635 " transform="matrix(0.0175556,0,0,0.017456,0,0)"/>
<path style="fill:none;stroke-width:25;stroke-linecap:round;stroke-linejoin:round;stroke:rgb(0%,0%,0%);stroke-opacity:1;stroke-miterlimit:4;" d="M 2250 1553.009932 L 2250 2205.095082 " transform="matrix(0.0175556,0,0,0.017456,0,0)"/>
<path style="fill-rule:nonzero;fill:rgb(100%,78.823529%,0%);fill-opacity:1;stroke-width:35;stroke-linecap:round;stroke-linejoin:round;stroke:rgb(0%,0%,0%);stroke-opacity:1;stroke-miterlimit:4;" d="M 554.934731 2355.025436 C 1674.817049 2140.199855 2825.182951 2140.199855 3945.065269 2355.025436 " transform="matrix(0.0175556,0,0,0.017456,0,0)"/>
<path style="fill-rule:nonzero;fill:rgb(100%,100%,100%);fill-opacity:1;stroke-width:60;stroke-linecap:butt;stroke-linejoin:miter;stroke:rgb(0%,0%,0%);stroke-opacity:1;stroke-miterlimit:4;" d="M 4095.925633 2389.934593 L 396.064082 2389.934593 L 396.064082 5489.912488 C 396.064082 5900.095082 396.064082 6289.914002 946.103639 6609.914608 L 2245.994858 7340.097808 L 3546.108584 6609.914608 C 4105.938489 6289.914002 4095.925633 5900.095082 4095.925633 5489.912488 Z M 4095.925633 2389.934593 " transform="matrix(0.0175556,0,0,0.017456,0,0)"/>
<path style=" stroke:none;fill-rule:nonzero;fill:rgb(95.294118%,23.137255%,11.372549%);fill-opacity:1;" d="M 43.414062 54.375 C 42.433594 53.902344 40.660156 54.183594 39.027344 53.921875 C 35.742188 53.398438 35.339844 52.472656 35.339844 51.792969 C 35.320312 51.078125 34.671875 51.042969 34.671875 51.808594 C 34.691406 56.347656 41.554688 54.027344 43.503906 55.195312 M 21.085938 52.820312 C 21.101562 51.601562 20.257812 50.816406 19.523438 50.746094 C 19.960938 51.25 20.046875 51.984375 20.117188 52.699219 C 19.976562 51.6875 19.222656 51.023438 18.574219 50.988281 C 18.925781 51.355469 19.117188 52.105469 19.152344 52.839844 C 19.046875 52.28125 18.519531 51.441406 17.644531 51.355469 C 18.046875 51.773438 18.171875 52.558594 18.257812 53.277344 C 18.136719 52.664062 17.503906 51.964844 16.800781 51.914062 C 17.097656 52.160156 17.34375 53.050781 17.398438 53.730469 C 17.308594 53.449219 16.816406 52.769531 16.046875 52.683594 C 16.449219 53.050781 16.625 53.9375 16.695312 54.636719 M 19.765625 71.289062 C 19.558594 70.332031 18.714844 69.316406 17.765625 69.441406 C 18.207031 69.738281 18.539062 70.855469 18.660156 71.570312 C 18.363281 70.765625 17.625 69.910156 16.746094 70.015625 C 17.222656 70.433594 17.503906 71.464844 17.679688 72.234375 C 17.203125 71.34375 16.625 70.679688 15.765625 70.785156 C 16.34375 71.34375 16.554688 72.320312 16.695312 73.070312 C 16.414062 72.441406 15.765625 71.675781 14.886719 71.761719 C 15.429688 72.25 15.660156 73.316406 15.851562 74.101562 C 15.5 73.628906 14.976562 72.964844 14.148438 73.035156 C 14.695312 73.558594 14.941406 74.589844 15.167969 75.375 M 22.578125 105.453125 C 21.644531 104.894531 20.363281 105.085938 19.765625 105.851562 C 20.433594 105.730469 21.417969 106.097656 21.804688 106.410156 C 21.171875 106.011719 19.855469 106.253906 19.347656 106.953125 C 19.941406 106.796875 20.910156 107.199219 21.417969 107.496094 C 20.75 107.265625 19.714844 107.320312 19.066406 108.105469 C 19.609375 107.984375 20.503906 108.28125 21.085938 108.613281 C 20.257812 108.417969 19.453125 108.734375 18.976562 109.292969 C 19.699219 109.136719 20.503906 109.554688 20.996094 109.78125 C 20.066406 109.761719 19.503906 110.128906 19.171875 110.515625 C 19.765625 110.390625 20.679688 110.707031 21.347656 111.054688 M 46.996094 111.195312 C 45.785156 111.039062 44.785156 111.769531 44.484375 112.625 C 44.820312 112.363281 45.871094 112.207031 46.558594 112.417969 C 45.609375 112.363281 44.660156 113.132812 44.46875 113.832031 C 44.855469 113.515625 46.082031 113.429688 46.539062 113.621094 C 45.679688 113.65625 44.855469 114.300781 44.609375 115.019531 C 45.011719 114.757812 46.136719 114.652344 46.769531 114.808594 C 45.835938 114.949219 45.171875 115.609375 44.960938 116.222656 C 45.523438 115.855469 46.257812 115.890625 47.171875 115.941406 C 46.222656 116.292969 45.90625 116.695312 45.589844 117.320312 C 46.117188 116.992188 47.050781 116.972656 47.960938 117.042969 "/>
<path style=" stroke:none;fill-rule:nonzero;fill:rgb(0%,0%,0%);fill-opacity:1;" d="M 40.710938 47.113281 L 36.429688 47.269531 C 36.21875 47.289062 36.058594 47.394531 36.058594 47.636719 C 36.078125 49.171875 36.375 50.167969 37.480469 50.972656 C 37.339844 51.828125 37.429688 52.261719 38.324219 52.980469 C 38.410156 52.28125 38.691406 51.964844 39.132812 51.667969 C 39.167969 51.6875 39.203125 51.6875 39.21875 51.703125 C 39.167969 52.019531 39.167969 52.351562 39.238281 52.542969 C 39.414062 53.03125 40.273438 53.050781 40.5 52.699219 C 40.710938 53.207031 41.148438 53.222656 41.5 53.222656 C 41.871094 53.222656 42.046875 52.960938 42.167969 52.71875 C 42.378906 52.890625 42.589844 53.082031 42.78125 53.328125 C 43.398438 54.167969 43.503906 55.25 43.503906 56.277344 C 43.308594 56.296875 43.117188 56.3125 42.921875 56.332031 L 42.921875 55.910156 C 42.90625 55.316406 41.519531 55.214844 41.203125 55.71875 C 40.851562 55.335938 39.761719 55.40625 39.761719 56.015625 L 39.761719 56.207031 C 39.515625 55.894531 39.324219 55.5625 39.167969 55.230469 C 38.726562 55.511719 38.464844 55.71875 38.535156 56.714844 C 38.339844 56.730469 38.148438 56.75 37.972656 56.765625 C 37.988281 57.917969 38.5 58.234375 42.640625 58.144531 C 42.746094 59.296875 41.589844 59.945312 40.730469 60.484375 C 38.480469 61.757812 36.113281 63.15625 34.832031 65.496094 C 33.757812 67.34375 33.496094 69.542969 33.617188 71.675781 L 34.847656 71.132812 L 34.988281 71.796875 C 32.777344 72.84375 28.738281 74.972656 26.085938 76.195312 C 25.4375 76.492188 23.753906 76.910156 23.402344 76.316406 C 22.191406 74.242188 21.226562 72.667969 19.820312 71.082031 C 19.101562 70.261719 14.324219 74.1875 15.203125 75.515625 C 17.203125 78.535156 20.46875 82.863281 25.910156 82.898438 C 31.546875 82.933594 36.445312 80.875 37.515625 80.558594 L 37.746094 81.273438 C 37.023438 81.589844 36.394531 81.816406 35.636719 82.0625 C 36.621094 85.902344 37.761719 87.402344 40.414062 89.742188 L 39.867188 90.144531 C 39.394531 89.863281 38.585938 88.972656 38.148438 88.554688 C 32.511719 91.207031 30.40625 93.859375 29.054688 96.601562 C 27.5625 99.902344 27.84375 103.652344 28.476562 107.128906 C 28.597656 107.703125 27.964844 107.984375 27.492188 107.808594 C 26.191406 107.511719 25.472656 106.21875 24.226562 105.75 C 23.664062 105.503906 22.925781 105.226562 22.3125 105.328125 C 21.3125 105.503906 20.242188 110.53125 21.261719 111.019531 C 23.15625 111.945312 25.226562 112.136719 27.335938 113.21875 C 28.722656 113.777344 30.054688 114.6875 31.636719 114.441406 C 32.53125 114.355469 33.425781 113.742188 33.511719 112.800781 C 34.304688 109.414062 35.410156 105.820312 38.007812 103.375 C 39.253906 102.152344 40.871094 101.175781 42.46875 100.425781 C 41.835938 98.015625 41.359375 95.605469 41.414062 93.09375 L 42.1875 93.058594 C 42.746094 102.625 45.3125 104.632812 49.824219 109.082031 C 50.277344 109.535156 50.242188 110.390625 49.578125 110.652344 C 48.699219 111.089844 47.664062 111.109375 46.664062 111.160156 C 45.589844 111.210938 46.398438 117.113281 47.980469 117.058594 C 50.753906 116.972656 53.632812 114.824219 55.300781 112.714844 C 56.003906 111.839844 56.84375 110.96875 57.511719 110.113281 C 58.335938 109.046875 57.441406 107.808594 57.195312 106.832031 C 56.511719 104.039062 56.195312 96.007812 56.160156 94.890625 L 57.144531 94.910156 L 57.285156 92.882812 C 54.351562 89.269531 54.824219 83.613281 53.613281 79.964844 C 53.140625 78.480469 52.613281 76.945312 52.613281 75.375 C 52.613281 73.246094 55.035156 69.246094 54.984375 65.6875 C 54.964844 64.1875 54.125 62.230469 54.140625 61.339844 C 54.160156 58.757812 55.652344 59.316406 55.617188 53.9375 C 55.597656 52.457031 55.421875 51.355469 55.035156 49.835938 C 57.652344 47.097656 54.054688 44.355469 51.980469 46.066406 C 50.3125 45.628906 50.105469 45.195312 46.839844 45.195312 C 44.046875 45.195312 42.449219 45.945312 40.710938 47.097656 M 35.65625 63.121094 C 33.8125 65.371094 32.777344 66.507812 32.847656 71.972656 C 15.449219 62.089844 20.539062 60.675781 16.730469 54.777344 C 16.132812 53.851562 20.011719 51.703125 21.242188 52.613281 C 23.71875 54.429688 22.804688 57.847656 24.859375 59.402344 C 26.894531 60.9375 30.527344 61.621094 35.65625 63.121094 M 46.277344 50.429688 C 46.011719 50.429688 45.539062 50.289062 45.398438 50.097656 C 43.871094 47.777344 43.484375 48.613281 43.257812 49.417969 C 43.0625 50.132812 42.222656 50.152344 42.46875 49.191406 C 43.082031 46.835938 44.75 47.167969 46.820312 50.429688 M 51.296875 48.089844 C 51.71875 47.53125 52.367188 46.992188 53.070312 46.765625 C 54.105469 46.414062 54.527344 47.253906 53.703125 47.53125 C 53.019531 47.828125 52.4375 48.25 51.945312 48.738281 M 37.675781 51.09375 C 37.9375 51.25 38.304688 51.441406 38.851562 51.601562 C 38.550781 51.84375 38.269531 52.195312 38.183594 52.578125 C 37.710938 52.246094 37.515625 51.636719 37.675781 51.09375 M 40.484375 52.019531 C 40.484375 52.246094 40.429688 52.472656 40.359375 52.578125 C 40.183594 52.855469 39.535156 52.839844 39.394531 52.457031 C 39.34375 52.296875 39.34375 52.019531 39.414062 51.757812 C 39.761719 51.84375 40.132812 51.914062 40.484375 52.019531 M 40.695312 52.070312 C 41.167969 52.210938 41.625 52.367188 42.027344 52.628906 C 41.941406 52.839844 41.78125 53.050781 41.464844 53.050781 C 41.183594 53.050781 40.871094 53.03125 40.695312 52.699219 C 40.605469 52.523438 40.640625 52.28125 40.695312 52.070312 M 38.710938 56.695312 C 38.65625 56.207031 38.710938 55.789062 39.097656 55.511719 C 39.289062 55.859375 39.5 56.191406 39.746094 56.488281 L 39.746094 56.609375 M 39.921875 56.601562 L 39.921875 56.050781 C 39.921875 55.476562 41.148438 55.511719 41.167969 56.050781 L 41.167969 56.488281 M 41.324219 56.46875 L 41.324219 55.980469 C 41.324219 55.40625 42.746094 55.441406 42.746094 55.964844 L 42.746094 56.347656 "/>
</g>
</svg>
