<?xml version="1.0" encoding="UTF-8"?>
<svg xmlns="http://www.w3.org/2000/svg" xmlns:xlink="http://www.w3.org/1999/xlink" width="100pt" height="100pt" viewBox="0 0 100 100" version="1.1">
<g id="surface1">
<path style=" stroke:none;fill-rule:nonzero;fill:rgb(100%,2.352941%,0%);fill-opacity:1;" d="M 92.070312 42.132812 C 88.847656 42.132812 86.113281 44.246094 85.171875 47.164062 L 80.199219 47.164062 C 79.710938 40.3125 76.980469 34.074219 72.734375 29.171875 L 76.257812 25.648438 C 77.269531 26.171875 78.398438 26.453125 79.570312 26.453125 C 81.503906 26.453125 83.328125 25.695312 84.699219 24.324219 C 86.066406 22.957031 86.820312 21.140625 86.820312 19.199219 C 86.820312 17.261719 86.066406 15.441406 84.699219 14.070312 C 81.871094 11.242188 77.269531 11.246094 74.445312 14.070312 C 73.074219 15.441406 72.316406 17.261719 72.316406 19.199219 C 72.316406 20.371094 72.597656 21.5 73.121094 22.511719 L 69.597656 26.035156 C 64.695312 21.789062 58.457031 19.054688 51.601562 18.570312 L 51.601562 13.597656 C 54.519531 12.65625 56.636719 9.925781 56.636719 6.699219 C 56.636719 2.695312 53.382812 -0.554688 49.382812 -0.554688 C 45.386719 -0.554688 42.132812 2.695312 42.132812 6.699219 C 42.132812 9.917969 44.246094 12.65625 47.164062 13.597656 L 47.164062 18.570312 C 40.308594 19.054688 34.070312 21.789062 29.171875 26.035156 L 25.648438 22.511719 C 27.046875 19.78125 26.609375 16.355469 24.324219 14.070312 C 21.5 11.246094 16.898438 11.246094 14.070312 14.070312 C 11.242188 16.902344 11.242188 21.5 14.070312 24.324219 C 15.480469 25.742188 17.339844 26.449219 19.199219 26.449219 C 20.332031 26.449219 21.472656 26.183594 22.507812 25.648438 L 26.035156 29.171875 C 21.789062 34.070312 19.054688 40.308594 18.570312 47.164062 L 13.597656 47.164062 C 12.65625 44.25 9.925781 42.132812 6.699219 42.132812 C 2.695312 42.132812 -0.554688 45.386719 -0.554688 49.382812 C -0.554688 53.382812 2.695312 56.636719 6.699219 56.636719 C 9.917969 56.636719 12.65625 54.519531 13.597656 51.601562 L 18.570312 51.601562 C 19.054688 58.457031 21.789062 64.695312 26.035156 69.59375 L 22.511719 73.121094 C 21.5 72.597656 20.371094 72.316406 19.199219 72.316406 C 17.265625 72.316406 15.441406 73.070312 14.070312 74.445312 C 11.246094 77.269531 11.246094 81.867188 14.070312 84.699219 C 15.441406 86.066406 17.265625 86.820312 19.199219 86.820312 C 21.140625 86.820312 22.957031 86.066406 24.332031 84.699219 C 25.699219 83.324219 26.453125 81.503906 26.453125 79.570312 C 26.453125 78.398438 26.171875 77.269531 25.652344 76.257812 L 29.175781 72.734375 C 34.074219 76.980469 40.3125 79.710938 47.164062 80.195312 L 47.164062 85.171875 C 44.25 86.109375 42.132812 88.847656 42.132812 92.070312 C 42.132812 96.070312 45.386719 99.328125 49.382812 99.328125 C 53.382812 99.328125 56.636719 96.070312 56.636719 92.070312 C 56.636719 88.847656 54.519531 86.113281 51.601562 85.171875 L 51.601562 80.199219 C 58.457031 79.710938 64.695312 76.980469 69.59375 72.734375 L 73.121094 76.257812 C 72.597656 77.269531 72.316406 78.398438 72.316406 79.570312 C 72.316406 81.503906 73.070312 83.328125 74.441406 84.699219 C 75.808594 86.066406 77.632812 86.820312 79.570312 86.820312 C 81.503906 86.820312 83.328125 86.066406 84.699219 84.699219 C 86.066406 83.328125 86.820312 81.503906 86.820312 79.570312 C 86.820312 77.632812 86.066406 75.8125 84.699219 74.445312 C 84.699219 74.445312 84.699219 74.445312 84.699219 74.441406 C 83.324219 73.070312 81.503906 72.316406 79.570312 72.316406 C 78.394531 72.316406 77.269531 72.597656 76.257812 73.121094 L 72.734375 69.59375 C 76.980469 64.695312 79.710938 58.457031 80.199219 51.601562 L 85.171875 51.601562 C 86.113281 54.519531 88.847656 56.636719 92.070312 56.636719 C 96.070312 56.636719 99.328125 53.382812 99.328125 49.382812 C 99.328125 45.386719 96.070312 42.132812 92.070312 42.132812 Z M 92.070312 42.132812 "/>
<path style=" stroke:none;fill-rule:nonzero;fill:rgb(100%,100%,100%);fill-opacity:1;" d="M 55.09375 34.875 L 51.410156 34.875 C 44.714844 34.875 39.285156 39.921875 39.285156 46.144531 L 39.285156 52.621094 C 39.285156 58.84375 44.714844 63.890625 51.410156 63.890625 L 55.09375 63.890625 C 56.292969 63.890625 57.261719 62.992188 57.261719 61.875 L 57.261719 60.160156 C 57.261719 59.042969 56.292969 58.144531 55.09375 58.144531 L 52.71875 58.144531 C 48.675781 58.144531 45.398438 55.097656 45.398438 51.339844 L 45.398438 47.425781 C 45.398438 43.671875 48.675781 40.621094 52.71875 40.621094 L 55.09375 40.621094 C 56.292969 40.621094 57.261719 39.722656 57.261719 38.605469 L 57.261719 36.890625 C 57.261719 35.78125 56.292969 34.875 55.09375 34.875 Z M 55.09375 34.875 "/>
</g>
</svg>
