<?xml version="1.0" encoding="UTF-8"?>
<svg xmlns="http://www.w3.org/2000/svg" xmlns:xlink="http://www.w3.org/1999/xlink" width="150pt" height="150pt" viewBox="0 0 150 150" version="1.1">
<g id="surface1">
<path style=" stroke:none;fill-rule:nonzero;fill:rgb(100%,2.352941%,0%);fill-opacity:1;" d="M 138.476562 63.367188 C 133.625 63.367188 129.515625 66.546875 128.097656 70.933594 L 120.621094 70.933594 C 119.882812 60.632812 115.777344 51.25 109.394531 43.875 L 114.691406 38.578125 C 116.214844 39.363281 117.914062 39.785156 119.675781 39.785156 C 122.582031 39.785156 125.328125 38.644531 127.386719 36.585938 C 129.445312 34.527344 130.578125 31.792969 130.578125 28.875 C 130.578125 25.960938 129.445312 23.222656 127.386719 21.164062 C 123.136719 16.90625 116.214844 16.914062 111.964844 21.164062 C 109.90625 23.222656 108.765625 25.960938 108.765625 28.875 C 108.765625 30.636719 109.1875 32.335938 109.972656 33.855469 L 104.675781 39.15625 C 97.300781 32.773438 87.917969 28.660156 77.609375 27.929688 L 77.609375 20.453125 C 81.996094 19.035156 85.183594 14.925781 85.183594 10.074219 C 85.183594 4.054688 80.289062 -0.835938 74.273438 -0.835938 C 68.261719 -0.835938 63.367188 4.054688 63.367188 10.074219 C 63.367188 14.917969 66.546875 19.035156 70.933594 20.453125 L 70.933594 27.929688 C 60.625 28.660156 51.242188 32.773438 43.875 39.15625 L 38.578125 33.855469 C 40.675781 29.753906 40.019531 24.597656 36.585938 21.164062 C 32.335938 16.914062 25.414062 16.914062 21.164062 21.164062 C 16.90625 25.421875 16.90625 32.335938 21.164062 36.585938 C 23.285156 38.714844 26.082031 39.777344 28.875 39.777344 C 30.582031 39.777344 32.296875 39.378906 33.851562 38.578125 L 39.15625 43.875 C 32.773438 51.242188 28.660156 60.625 27.929688 70.933594 L 20.453125 70.933594 C 19.035156 66.554688 14.925781 63.367188 10.074219 63.367188 C 4.054688 63.367188 -0.835938 68.261719 -0.835938 74.273438 C -0.835938 80.289062 4.054688 85.183594 10.074219 85.183594 C 14.917969 85.183594 19.035156 81.996094 20.453125 77.609375 L 27.929688 77.609375 C 28.660156 87.917969 32.773438 97.300781 39.15625 104.667969 L 33.855469 109.972656 C 32.335938 109.1875 30.636719 108.765625 28.875 108.765625 C 25.964844 108.765625 23.222656 109.898438 21.164062 111.964844 C 16.914062 116.214844 16.914062 123.128906 21.164062 127.386719 C 23.222656 129.445312 25.964844 130.578125 28.875 130.578125 C 31.792969 130.578125 34.527344 129.445312 36.59375 127.386719 C 38.652344 125.320312 39.785156 122.582031 39.785156 119.675781 C 39.785156 117.914062 39.363281 116.214844 38.582031 114.691406 L 43.882812 109.394531 C 51.25 115.777344 60.632812 119.882812 70.933594 120.613281 L 70.933594 128.097656 C 66.554688 129.507812 63.367188 133.625 63.367188 138.476562 C 63.367188 144.488281 68.261719 149.386719 74.273438 149.386719 C 80.289062 149.386719 85.183594 144.488281 85.183594 138.476562 C 85.183594 133.625 81.996094 129.515625 77.609375 128.097656 L 77.609375 120.621094 C 87.917969 119.882812 97.300781 115.777344 104.667969 109.394531 L 109.972656 114.691406 C 109.1875 116.214844 108.765625 117.914062 108.765625 119.675781 C 108.765625 122.582031 109.898438 125.328125 111.957031 127.386719 C 114.015625 129.445312 116.757812 130.578125 119.675781 130.578125 C 122.582031 130.578125 125.328125 129.445312 127.386719 127.386719 C 129.445312 125.328125 130.578125 122.582031 130.578125 119.675781 C 130.578125 116.757812 129.445312 114.023438 127.386719 111.964844 C 127.386719 111.964844 127.386719 111.964844 127.386719 111.957031 C 125.320312 109.898438 122.582031 108.765625 119.675781 108.765625 C 117.90625 108.765625 116.214844 109.1875 114.691406 109.972656 L 109.394531 104.667969 C 115.777344 97.300781 119.882812 87.917969 120.621094 77.609375 L 128.097656 77.609375 C 129.515625 81.996094 133.625 85.183594 138.476562 85.183594 C 144.488281 85.183594 149.386719 80.289062 149.386719 74.273438 C 149.386719 68.261719 144.488281 63.367188 138.476562 63.367188 Z M 138.476562 63.367188 "/>
<path style=" stroke:none;fill-rule:nonzero;fill:rgb(100%,100%,100%);fill-opacity:1;" d="M 82.859375 52.449219 L 77.320312 52.449219 C 67.25 52.449219 59.085938 60.042969 59.085938 69.402344 L 59.085938 79.144531 C 59.085938 88.503906 67.25 96.09375 77.320312 96.09375 L 82.859375 96.09375 C 84.664062 96.09375 86.121094 94.738281 86.121094 93.058594 L 86.121094 90.480469 C 86.121094 88.800781 84.664062 87.449219 82.859375 87.449219 L 79.289062 87.449219 C 73.207031 87.449219 68.28125 82.867188 68.28125 77.214844 L 68.28125 71.328125 C 68.28125 65.683594 73.207031 61.09375 79.289062 61.09375 L 82.859375 61.09375 C 84.664062 61.09375 86.121094 59.742188 86.121094 58.0625 L 86.121094 55.484375 C 86.121094 53.8125 84.664062 52.449219 82.859375 52.449219 Z M 82.859375 52.449219 "/>
</g>
</svg>
