<?xml version="1.0" encoding="UTF-8"?>
<svg xmlns="http://www.w3.org/2000/svg" xmlns:xlink="http://www.w3.org/1999/xlink" width="80pt" height="80pt" viewBox="0 0 80 80" version="1.1">
<g id="surface1">
<path style=" stroke:none;fill-rule:nonzero;fill:rgb(100%,75.686275%,2.745098%);fill-opacity:1;" d="M 39.507812 0 C 17.726562 0 0 17.726562 0 39.507812 C 0 61.300781 17.726562 79.023438 39.507812 79.023438 C 61.300781 79.023438 79.023438 61.300781 79.023438 39.507812 C 79.023438 17.726562 61.300781 0 39.507812 0 Z M 39.507812 0 "/>
<path style=" stroke:none;fill-rule:nonzero;fill:rgb(92.54902%,93.72549%,94.509804%);fill-opacity:1;" d="M 42.808594 59.269531 C 42.808594 61.085938 41.332031 62.5625 39.507812 62.5625 C 37.695312 62.5625 36.222656 61.085938 36.222656 59.269531 C 36.222656 57.449219 37.695312 55.976562 39.507812 55.976562 C 41.332031 55.976562 42.808594 57.449219 42.808594 59.269531 Z M 42.808594 59.269531 "/>
<path style=" stroke:none;fill-rule:nonzero;fill:rgb(98.039216%,98.039216%,98.039216%);fill-opacity:1;" d="M 44.726562 41.628906 C 43.558594 42.164062 42.808594 43.335938 42.808594 44.617188 L 42.808594 46.097656 C 42.808594 47.914062 41.332031 49.390625 39.507812 49.390625 C 37.691406 49.390625 36.222656 47.914062 36.222656 46.097656 L 36.222656 44.617188 C 36.222656 40.78125 38.480469 37.25 41.96875 35.644531 C 45.320312 34.101562 47.742188 29.996094 47.742188 27.988281 C 47.742188 23.449219 44.054688 19.757812 39.507812 19.757812 C 34.976562 19.757812 31.277344 23.449219 31.277344 27.988281 C 31.277344 29.804688 29.804688 31.277344 27.988281 31.277344 C 26.164062 31.277344 24.695312 29.804688 24.695312 27.988281 C 24.695312 19.820312 31.34375 13.167969 39.507812 13.167969 C 47.683594 13.167969 54.328125 19.820312 54.328125 27.988281 C 54.328125 32.433594 50.472656 38.976562 44.726562 41.628906 Z M 44.726562 41.628906 "/>
</g>
</svg>
