<?xml version="1.0" encoding="UTF-8"?>
<svg xmlns="http://www.w3.org/2000/svg" xmlns:xlink="http://www.w3.org/1999/xlink" width="106pt" height="119pt" viewBox="0 0 106 119" version="1.1">
<g id="surface1">
<path style=" stroke:none;fill-rule:evenodd;fill:rgb(0%,0%,0%);fill-opacity:1;" d="M 52.996094 119 C 23.726562 119 0 95.332031 0 66.109375 L 0 0 L 106 0 L 106 66.109375 C 106 95.332031 82.269531 119 53 119 "/>
<path style=" stroke:none;fill-rule:evenodd;fill:rgb(100%,86.666667%,0%);fill-opacity:1;" d="M 35.199219 11.898438 L 104.675781 11.898438 L 104.675781 23.140625 L 39.292969 23.140625 C 39.605469 22.320312 39.460938 21.367188 38.742188 20.519531 C 37.679688 19.304688 36.152344 19.277344 35.089844 20.203125 C 34.875 20.386719 34.675781 20.652344 34.539062 20.996094 C 33.613281 20.308594 32.246094 19.859375 31.125 20.839844 C 30.347656 21.5 30.121094 22.320312 30.328125 23.058594 C 30.253906 23.058594 30.179688 23.164062 30.109375 23.164062 L 27.605469 23.164062 C 26.828125 22.925781 26.105469 22.476562 25.539062 21.84375 C 24 20.070312 24.113281 17.242188 25.867188 15.707031 C 26.097656 15.523438 26.441406 15.550781 26.636719 15.789062 C 26.746094 15.917969 26.792969 16.078125 26.773438 16.238281 C 26.628906 17.136719 26.347656 17.558594 25.746094 18.195312 L 26.085938 18.5625 C 27.113281 19.753906 29.019531 20.152344 30.382812 19.304688 C 31.578125 19.9375 32.957031 19.992188 34.042969 19.039062 C 35.128906 18.089844 35.273438 16.738281 34.8125 15.46875 C 35.617188 14.492188 35.703125 13.089844 35.199219 11.953125 M 55.351562 35.089844 L 104.675781 35.089844 L 104.675781 46.332031 L 59.4375 46.332031 C 59.753906 45.511719 59.613281 44.53125 58.886719 43.710938 C 57.832031 42.496094 56.300781 42.46875 55.242188 43.394531 C 55.023438 43.582031 54.824219 43.820312 54.6875 44.1875 C 53.761719 43.476562 52.394531 43.023438 51.273438 44.003906 C 50.496094 44.664062 50.269531 45.511719 50.472656 46.25 C 50.386719 46.277344 50.3125 46.304688 50.230469 46.304688 L 47.78125 46.304688 C 46.992188 46.09375 46.261719 45.644531 45.691406 45.007812 C 44.148438 43.238281 44.257812 40.378906 46.015625 38.875 C 46.246094 38.660156 46.589844 38.6875 46.789062 38.925781 C 46.894531 39.03125 46.9375 39.21875 46.921875 39.347656 C 46.78125 40.273438 46.496094 40.699219 45.894531 41.304688 L 46.234375 41.703125 C 47.257812 42.894531 49.171875 43.261719 50.53125 42.441406 C 51.726562 43.078125 53.101562 43.105469 54.191406 42.179688 C 55.277344 41.226562 55.421875 39.851562 54.960938 38.582031 C 55.765625 37.628906 55.851562 36.203125 55.351562 35.089844 M 75.507812 58.230469 L 104.675781 58.230469 L 104.675781 66.136719 C 104.675781 67.273438 104.675781 68.359375 104.570312 69.46875 L 79.585938 69.46875 C 79.902344 68.625 79.761719 67.671875 79.042969 66.824219 C 77.980469 65.609375 76.457031 65.582031 75.386719 66.507812 C 75.175781 66.691406 74.976562 66.957031 74.835938 67.300781 C 73.910156 66.613281 72.546875 66.164062 71.421875 67.117188 C 70.644531 67.804688 70.417969 68.625 70.625 69.363281 C 70.53125 69.390625 70.441406 69.417969 70.351562 69.46875 L 67.957031 69.46875 C 67.160156 69.230469 66.417969 68.808594 65.839844 68.148438 C 64.300781 66.375 64.410156 63.519531 66.164062 62.011719 C 66.394531 61.800781 66.742188 61.828125 66.9375 62.066406 C 67.042969 62.171875 67.089844 62.355469 67.070312 62.488281 C 66.929688 63.386719 66.648438 63.808594 66.046875 64.445312 L 66.382812 64.839844 C 67.40625 66.003906 69.320312 66.402344 70.679688 65.554688 C 71.875 66.191406 73.253906 66.242188 74.339844 65.316406 C 75.429688 64.367188 75.570312 62.992188 75.113281 61.722656 C 75.910156 60.769531 76.003906 59.339844 75.507812 58.230469 M 95.65625 81.371094 L 102.386719 81.371094 C 101.484375 84.277344 100.339844 87.082031 98.96875 89.726562 C 97.929688 88.746094 96.53125 88.800781 95.539062 89.648438 C 95.324219 89.832031 95.125 90.097656 94.984375 90.441406 C 94.054688 89.753906 92.6875 89.304688 91.574219 90.253906 C 90.800781 90.941406 90.566406 91.761719 90.769531 92.503906 C 90.671875 92.527344 90.578125 92.582031 90.472656 92.609375 L 88.136719 92.609375 C 87.324219 92.371094 86.574219 91.949219 85.988281 91.261719 C 84.449219 89.488281 84.558594 86.660156 86.320312 85.125 C 86.546875 84.941406 86.886719 84.964844 87.089844 85.175781 C 87.195312 85.308594 87.238281 85.46875 87.226562 85.628906 C 87.078125 86.527344 86.792969 86.949219 86.191406 87.558594 L 86.53125 87.953125 C 87.554688 89.144531 89.472656 89.539062 90.835938 88.695312 C 92.027344 89.328125 93.40625 89.382812 94.488281 88.429688 C 95.578125 87.503906 95.71875 86.128906 95.257812 84.859375 C 96.066406 83.882812 96.148438 82.480469 95.65625 81.371094 M 1.328125 23.140625 L 1.328125 13.039062 L 10.121094 23.140625 Z M 1.328125 46.277344 L 1.328125 35.039062 L 20.488281 35.039062 L 30.277344 46.277344 Z M 1.429688 69.417969 C 1.363281 68.332031 1.328125 67.222656 1.328125 66.109375 L 1.328125 58.179688 L 40.644531 58.179688 L 50.433594 69.417969 Z M 80.953125 104.457031 L 83.691406 107.601562 C 75.113281 113.921875 64.492188 117.679688 53 117.679688 C 39.714844 117.679688 27.601562 112.679688 18.445312 104.457031 Z M 8.628906 92.554688 C 6.53125 89.066406 4.835938 85.285156 3.609375 81.316406 L 60.800781 81.316406 L 70.589844 92.554688 Z M 8.628906 92.554688 "/>
<path style=" stroke:none;fill-rule:evenodd;fill:rgb(0%,51.764706%,26.666667%);fill-opacity:1;" d="M 41.082031 43.421875 C 40.726562 41.703125 40.894531 39.851562 41.652344 38.316406 C 40.007812 38.847656 38.164062 38.742188 36.488281 38.160156 Z M 20.929688 20.308594 C 20.578125 18.5625 20.746094 16.738281 21.503906 15.179688 C 19.859375 15.707031 18.015625 15.628906 16.339844 15.019531 Z M 31.003906 31.867188 C 30.652344 30.121094 30.820312 28.296875 31.578125 26.734375 C 29.933594 27.289062 28.09375 27.183594 26.414062 26.601562 Z M 51.15625 55.003906 C 50.800781 53.257812 50.96875 51.433594 51.726562 49.875 C 50.082031 50.402344 48.238281 50.324219 46.5625 49.714844 Z M 61.226562 66.5625 C 60.875 64.816406 61.042969 62.992188 61.800781 61.429688 C 60.15625 61.984375 58.316406 61.878906 56.636719 61.296875 Z M 71.304688 78.117188 C 70.949219 76.398438 71.117188 74.546875 71.875 73.011719 C 70.230469 73.542969 68.386719 73.4375 66.710938 72.855469 Z M 81.378906 89.699219 C 81.027344 87.953125 81.195312 86.128906 81.953125 84.570312 C 80.304688 85.097656 78.460938 85.019531 76.785156 84.4375 Z M 91.148438 100.886719 L 91.359375 100.675781 C 91.148438 99.113281 91.359375 97.5 92.027344 96.125 C 90.382812 96.65625 88.539062 96.574219 86.863281 95.992188 L 91.148438 100.910156 Z M 10.855469 8.726562 C 10.503906 7.007812 10.671875 5.15625 11.425781 3.621094 C 9.785156 4.152344 7.941406 4.046875 6.265625 3.464844 Z M 85.613281 106.121094 L 1.328125 9.363281 L 1.328125 11.316406 L 84.601562 106.914062 C 84.941406 106.652344 85.28125 106.386719 85.613281 106.121094 M 1.328125 7.640625 L 86.484375 105.382812 C 87.21875 104.773438 87.9375 104.113281 88.644531 103.449219 L 1.328125 3.199219 Z M 63.113281 70.449219 L 2.898438 1.320312 L 1.328125 1.320312 L 1.328125 1.480469 L 89.457031 102.65625 C 89.769531 102.339844 90.066406 102.050781 90.367188 101.730469 Z M 98.402344 90.757812 C 98.402344 90.730469 98.316406 90.703125 98.316406 90.679688 C 97.804688 90.070312 96.847656 89.9375 96.257812 90.464844 C 95.953125 90.730469 95.761719 91.046875 95.726562 91.417969 L 94.730469 91.710938 C 93.988281 90.863281 92.925781 90.519531 92.292969 91.074219 C 91.464844 91.789062 91.867188 92.292969 92.292969 93.003906 C 89.816406 94.195312 87.058594 94.246094 85.082031 91.972656 C 83.167969 89.753906 83.261719 86.207031 85.519531 84.253906 C 86.21875 83.644531 87.28125 83.722656 87.886719 84.410156 C 88.214844 84.78125 88.355469 85.285156 88.289062 85.734375 C 88.199219 86.339844 87.992188 86.976562 87.671875 87.503906 C 88.707031 88.273438 89.789062 88.058594 90.703125 87.292969 C 91.617188 87.875 92.714844 88.402344 93.695312 87.558594 C 94.679688 86.683594 94.3125 85.546875 93.851562 84.570312 C 94.734375 83.75 95.109375 82.71875 94.480469 81.582031 C 93.265625 82.136719 91.394531 82.109375 90.511719 81.371094 C 89.695312 80.707031 89.769531 79.675781 90.671875 79.175781 C 91.65625 78.566406 93.5 78.804688 94.628906 79.519531 C 95.40625 78.488281 95.179688 77.375 94.417969 76.476562 C 95.011719 75.550781 95.535156 74.46875 94.679688 73.488281 C 93.832031 72.511719 92.671875 72.882812 91.683594 73.332031 C 90.882812 72.457031 89.835938 72.085938 88.707031 72.695312 C 89.242188 73.914062 89.21875 75.761719 88.496094 76.664062 C 87.84375 77.480469 86.820312 77.402344 86.285156 76.53125 C 85.683594 75.550781 85.914062 73.699219 86.625 72.5625 C 85.59375 71.769531 84.496094 72.007812 83.582031 72.75 C 82.667969 72.167969 81.578125 71.664062 80.589844 72.511719 C 79.605469 73.355469 79.972656 74.519531 80.425781 75.5 C 79.550781 76.292969 79.175781 77.351562 79.804688 78.460938 C 80.359375 78.222656 81.027344 78.117188 81.640625 78.089844 C 82.101562 78.117188 82.574219 78.300781 82.898438 78.671875 C 83.507812 79.386719 83.433594 80.445312 82.734375 81.050781 C 80.46875 83.007812 76.925781 82.613281 75.003906 80.390625 C 73.027344 78.117188 73.449219 75.417969 74.980469 73.144531 C 75.605469 73.675781 76.042969 74.148438 76.878906 73.4375 C 77.507812 72.882812 77.332031 71.796875 76.589844 70.925781 L 77.015625 70 C 77.378906 70 77.726562 69.867188 78.046875 69.601562 C 78.628906 69.097656 78.628906 68.121094 78.117188 67.539062 C 77.609375 66.957031 76.652344 66.824219 76.066406 67.328125 C 75.746094 67.59375 75.566406 67.9375 75.53125 68.304688 L 74.527344 68.570312 C 73.785156 67.722656 72.722656 67.40625 72.097656 67.9375 C 71.261719 68.675781 71.671875 69.179688 72.121094 69.867188 C 69.644531 71.082031 66.886719 71.109375 64.910156 68.835938 C 62.992188 66.640625 63.082031 63.070312 65.347656 61.113281 C 66.046875 60.503906 67.105469 60.585938 67.714844 61.273438 C 68.039062 61.640625 68.175781 62.144531 68.117188 62.59375 C 68.023438 63.203125 67.820312 63.863281 67.492188 64.367188 C 68.527344 65.132812 69.621094 64.921875 70.53125 64.152344 C 71.445312 64.761719 72.542969 65.265625 73.523438 64.417969 C 74.503906 63.574219 74.136719 62.410156 73.6875 61.429688 C 74.558594 60.636719 74.9375 59.578125 74.304688 58.441406 C 73.09375 58.996094 71.21875 58.972656 70.328125 58.230469 C 69.523438 57.570312 69.589844 56.566406 70.496094 56.035156 C 71.480469 55.425781 73.324219 55.664062 74.453125 56.378906 C 75.234375 55.347656 75.003906 54.265625 74.25 53.339844 C 74.835938 52.4375 75.359375 51.355469 74.503906 50.351562 C 73.648438 49.371094 72.5 49.742188 71.507812 50.191406 C 70.71875 49.320312 69.660156 48.949219 68.527344 49.582031 C 69.070312 50.773438 69.046875 52.652344 68.320312 53.523438 C 67.675781 54.371094 66.648438 54.289062 66.109375 53.390625 C 65.507812 52.414062 65.742188 50.5625 66.445312 49.425781 C 65.414062 48.65625 64.316406 48.871094 63.410156 49.636719 C 62.492188 49.054688 61.402344 48.527344 60.417969 49.371094 C 59.433594 50.246094 59.800781 51.382812 60.253906 52.359375 C 59.382812 53.152344 59.003906 54.210938 59.628906 55.347656 C 60.1875 55.082031 60.855469 54.976562 61.464844 54.976562 C 61.925781 54.976562 62.402344 55.191406 62.726562 55.558594 C 63.335938 56.246094 63.261719 57.304688 62.5625 57.914062 C 60.296875 59.871094 56.753906 59.472656 54.832031 57.277344 C 52.855469 55.003906 53.277344 52.28125 54.808594 50.007812 C 55.433594 50.535156 55.871094 51.011719 56.703125 50.296875 C 57.335938 49.742188 57.15625 48.65625 56.414062 47.8125 L 56.839844 46.859375 C 57.210938 46.859375 57.558594 46.726562 57.871094 46.460938 C 58.460938 45.960938 58.460938 44.980469 57.949219 44.398438 C 57.4375 43.820312 56.488281 43.6875 55.898438 44.1875 C 55.582031 44.480469 55.402344 44.796875 55.359375 45.167969 L 54.363281 45.457031 C 53.621094 44.613281 52.558594 44.269531 51.929688 44.824219 C 51.101562 45.539062 51.503906 46.039062 51.957031 46.726562 C 49.492188 47.945312 46.738281 47.96875 44.757812 45.695312 C 42.839844 43.5 42.933594 39.957031 45.195312 37.972656 C 45.894531 37.367188 46.957031 37.445312 47.566406 38.132812 C 47.886719 38.53125 48.027344 39.003906 47.964844 39.480469 C 47.875 40.0625 47.667969 40.722656 47.34375 41.226562 C 48.375 42.019531 49.46875 41.78125 50.382812 41.042969 C 51.296875 41.625 52.386719 42.125 53.371094 41.28125 C 54.355469 40.433594 53.988281 39.269531 53.53125 38.292969 C 54.410156 37.5 54.785156 36.441406 54.160156 35.328125 C 52.9375 35.859375 51.066406 35.832031 50.179688 35.089844 C 49.371094 34.457031 49.4375 33.425781 50.347656 32.898438 C 51.332031 32.316406 53.175781 32.554688 54.304688 33.242188 C 55.082031 32.210938 54.859375 31.125 54.101562 30.226562 C 54.691406 29.300781 55.210938 28.214844 54.355469 27.238281 C 53.5 26.257812 52.347656 26.601562 51.359375 27.078125 C 50.5625 26.179688 49.511719 25.808594 48.378906 26.445312 C 48.917969 27.660156 48.894531 29.511719 48.171875 30.410156 C 47.523438 31.230469 46.496094 31.152344 45.957031 30.253906 C 45.355469 29.273438 45.589844 27.421875 46.296875 26.3125 C 45.265625 25.519531 44.167969 25.757812 43.257812 26.496094 C 42.339844 25.914062 41.253906 25.386719 40.265625 26.257812 C 39.285156 27.105469 39.648438 28.242188 40.105469 29.246094 C 39.226562 30.039062 38.851562 31.070312 39.476562 32.210938 C 40.035156 31.972656 40.703125 31.839844 41.3125 31.839844 C 41.777344 31.839844 42.25 32.050781 42.574219 32.421875 C 43.183594 33.109375 43.109375 34.167969 42.410156 34.773438 C 40.148438 36.730469 36.601562 36.335938 34.683594 34.140625 C 32.703125 31.867188 33.125 29.140625 34.65625 26.867188 C 35.289062 27.421875 35.726562 27.898438 36.558594 27.183594 C 37.1875 26.628906 37.011719 25.519531 36.269531 24.671875 L 36.691406 23.71875 C 37.0625 23.71875 37.410156 23.613281 37.726562 23.324219 C 38.3125 22.820312 38.3125 21.871094 37.804688 21.289062 C 37.292969 20.707031 36.339844 20.546875 35.75 21.078125 C 35.4375 21.339844 35.257812 21.65625 35.21875 22.027344 L 34.21875 22.320312 C 33.476562 21.472656 32.414062 21.15625 31.785156 21.683594 C 30.953125 22.398438 31.359375 22.902344 31.820312 23.613281 C 29.339844 24.804688 26.585938 24.859375 24.609375 22.582031 C 22.6875 20.363281 22.78125 16.820312 25.046875 14.863281 C 25.746094 14.253906 26.804688 14.332031 27.410156 15.019531 C 27.738281 15.390625 27.871094 15.894531 27.816406 16.34375 C 27.722656 16.949219 27.515625 17.585938 27.191406 18.113281 C 28.222656 18.882812 29.316406 18.667969 30.230469 17.902344 C 31.144531 18.484375 32.234375 19.011719 33.21875 18.167969 C 34.203125 17.292969 33.835938 16.15625 33.382812 15.179688 C 34.257812 14.386719 34.632812 13.328125 34.011719 12.191406 C 32.789062 12.746094 30.914062 12.71875 30.03125 11.980469 C 29.222656 11.316406 29.285156 10.285156 30.195312 9.785156 C 31.179688 9.175781 33.023438 9.414062 34.152344 10.128906 C 34.933594 9.097656 34.707031 7.984375 33.949219 7.085938 C 34.539062 6.160156 35.0625 5.078125 34.203125 4.097656 C 33.347656 3.121094 32.195312 3.492188 31.210938 3.941406 C 30.410156 3.066406 29.355469 2.699219 28.226562 3.304688 C 28.765625 4.523438 28.746094 6.375 28.019531 7.273438 C 27.375 8.09375 26.34375 8.011719 25.808594 7.140625 C 25.207031 6.160156 25.4375 4.308594 26.144531 3.171875 C 25.113281 2.378906 24.015625 2.617188 23.105469 3.386719 C 22.191406 2.777344 21.101562 2.273438 20.117188 3.121094 C 19.132812 3.964844 19.496094 5.128906 19.953125 6.109375 C 19.078125 6.902344 18.703125 7.960938 19.324219 9.070312 C 19.886719 8.832031 20.550781 8.726562 21.160156 8.699219 C 21.625 8.699219 22.097656 8.910156 22.425781 9.28125 C 23.03125 9.996094 22.957031 11.054688 22.257812 11.660156 C 19.992188 13.617188 16.453125 13.222656 14.53125 11 C 12.554688 8.753906 12.972656 6.03125 14.515625 3.753906 C 15.144531 4.285156 15.582031 4.761719 16.414062 4.046875 C 17.042969 3.492188 16.933594 2.273438 15.890625 1.320312 L 4.515625 1.320312 C 6.710938 3.015625 9.710938 3.304688 12.230469 2.011719 L 12.652344 2.484375 L 13.074219 2.988281 C 11.140625 5.6875 11.308594 9.363281 13.519531 11.898438 C 15.726562 14.4375 19.351562 15.101562 22.304688 13.566406 L 22.726562 14.070312 L 23.148438 14.542969 C 21.214844 17.242188 21.382812 20.917969 23.59375 23.457031 C 25.800781 25.996094 29.421875 26.683594 32.378906 25.148438 L 32.804688 25.625 L 33.226562 26.101562 C 31.289062 28.824219 31.457031 32.472656 33.664062 35.011719 C 35.875 37.550781 39.5 38.238281 42.457031 36.703125 L 42.878906 37.179688 L 43.296875 37.65625 C 41.410156 40.378906 41.578125 44.054688 43.789062 46.570312 C 46 49.105469 49.621094 49.792969 52.574219 48.261719 L 52.996094 48.738281 L 53.421875 49.238281 C 51.488281 51.9375 51.652344 55.613281 53.863281 58.152344 C 56.074219 60.691406 59.695312 61.351562 62.652344 59.816406 L 63.074219 60.320312 L 63.496094 60.796875 C 61.558594 63.492188 61.730469 67.167969 63.9375 69.707031 C 66.148438 72.246094 69.769531 72.933594 72.726562 71.398438 L 73.152344 71.875 L 73.566406 72.351562 C 71.632812 75.074219 71.808594 78.75 74.011719 81.265625 C 76.222656 83.800781 79.84375 84.488281 82.804688 82.957031 L 83.21875 83.433594 L 83.644531 83.933594 C 81.707031 86.632812 81.878906 90.308594 84.089844 92.847656 C 86.292969 95.386719 89.917969 96.046875 92.878906 94.511719 L 93.304688 95.015625 L 93.714844 95.492188 C 92.867188 96.679688 92.421875 98.082031 92.386719 99.457031 C 94.660156 96.785156 96.675781 93.851562 98.371094 90.757812 M 81.417969 74.175781 L 82.148438 73.515625 L 85.007812 76.820312 L 84.28125 77.457031 Z M 92.179688 86.527344 L 92.917969 85.890625 L 90.054688 82.585938 L 89.316406 83.21875 Z M 86.578125 79.359375 C 86.953125 79.042969 87.511719 79.070312 87.835938 79.4375 C 88.152344 79.808594 88.117188 80.363281 87.746094 80.683594 C 87.375 81 86.8125 80.972656 86.492188 80.601562 C 86.175781 80.234375 86.210938 79.675781 86.582031 79.359375 M 85.96875 78.644531 C 86.730469 77.984375 87.875 78.089844 88.542969 78.832031 C 89.191406 79.597656 89.113281 80.734375 88.359375 81.394531 C 87.601562 82.058594 86.449219 81.976562 85.792969 81.210938 C 85.136719 80.445312 85.214844 79.308594 85.96875 78.644531 M 73.523438 51.882812 L 72.886719 51.144531 L 69.59375 54 L 70.230469 54.738281 Z M 72.035156 63.386719 L 72.761719 62.753906 L 69.898438 59.472656 L 69.167969 60.109375 Z M 61.269531 51.039062 L 62 50.402344 L 64.863281 53.683594 L 64.128906 54.316406 Z M 67.597656 57.570312 C 67.96875 57.253906 68.007812 56.671875 67.679688 56.300781 C 67.355469 55.929688 66.796875 55.902344 66.425781 56.222656 C 66.054688 56.539062 66.015625 57.121094 66.34375 57.488281 C 66.667969 57.859375 67.226562 57.886719 67.597656 57.570312 M 68.207031 58.257812 C 68.964844 57.621094 69.046875 56.457031 68.386719 55.71875 C 67.730469 54.953125 66.578125 54.871094 65.820312 55.535156 C 65.066406 56.195312 64.984375 57.332031 65.640625 58.097656 C 66.300781 58.839844 67.449219 58.917969 68.207031 58.257812 M 52.738281 28.03125 L 53.375 28.773438 L 50.078125 31.628906 L 49.445312 30.886719 Z M 41.117188 27.898438 L 41.847656 27.265625 L 44.714844 30.570312 L 43.980469 31.203125 Z M 51.882812 40.273438 L 52.613281 39.640625 L 49.75 36.335938 L 49.019531 36.96875 Z M 46.28125 33.109375 C 46.652344 32.792969 47.214844 32.816406 47.535156 33.1875 C 47.855469 33.558594 47.820312 34.113281 47.449219 34.429688 C 47.078125 34.773438 46.519531 34.722656 46.195312 34.351562 C 45.871094 33.980469 45.910156 33.425781 46.28125 33.109375 M 45.671875 32.394531 C 46.429688 31.734375 47.578125 31.8125 48.238281 32.578125 C 48.898438 33.347656 48.816406 34.484375 48.058594 35.144531 C 47.300781 35.804688 46.152344 35.726562 45.492188 34.960938 C 44.835938 34.191406 44.914062 33.054688 45.671875 32.394531 M 33.226562 5.632812 L 32.589844 4.890625 L 29.296875 7.75 L 29.933594 8.488281 Z M 31.730469 17.136719 L 32.464844 16.5 L 29.601562 13.222656 L 28.867188 13.855469 Z M 20.96875 4.785156 L 21.699219 4.152344 L 24.5625 7.429688 L 23.832031 8.066406 Z M 27.300781 11.316406 C 27.671875 10.972656 27.710938 10.417969 27.378906 10.050781 C 27.054688 9.679688 26.496094 9.652344 26.125 9.96875 C 25.757812 10.285156 25.714844 10.84375 26.035156 11.210938 C 26.359375 11.582031 26.921875 11.636719 27.292969 11.316406 M 27.898438 12.003906 C 28.660156 11.34375 28.742188 10.207031 28.082031 9.441406 C 27.421875 8.699219 26.273438 8.621094 25.515625 9.28125 C 24.757812 9.917969 24.679688 11.082031 25.335938 11.820312 C 25.992188 12.585938 27.144531 12.667969 27.898438 12.003906 M 93.027344 74.308594 L 93.664062 75.023438 L 90.371094 77.878906 L 89.738281 77.164062 Z M 93.027344 74.308594 "/>
</g>
</svg>
