<?xml version="1.0" encoding="UTF-8"?>
<svg xmlns="http://www.w3.org/2000/svg" xmlns:xlink="http://www.w3.org/1999/xlink" width="108pt" height="130pt" viewBox="0 0 108 130" version="1.1">
<g id="surface1">
<path style=" stroke:none;fill-rule:evenodd;fill:rgb(0%,0%,0%);fill-opacity:1;" d="M 54.171875 127.472656 C 25.792969 127.472656 2.882812 104.636719 2.882812 76.347656 L 2.882812 3.6875 L 105.457031 3.6875 L 105.457031 76.347656 C 105.457031 104.636719 82.546875 127.472656 54.171875 127.472656 "/>
<path style=" stroke:none;fill-rule:nonzero;fill:rgb(97.647059%,81.960784%,0%);fill-opacity:1;" d="M 3.507812 11.34375 L 3.507812 4.59375 L 104.421875 4.59375 L 104.519531 11.34375 Z M 3.507812 24.96875 L 3.507812 18.21875 L 104.421875 18.21875 L 104.519531 24.96875 Z M 3.507812 38.460938 L 3.507812 31.714844 L 104.421875 31.714844 L 104.519531 38.460938 Z M 3.507812 51.957031 L 3.507812 45.207031 L 104.421875 45.207031 L 104.519531 51.957031 Z M 3.507812 65.191406 L 3.507812 58.441406 L 104.421875 58.441406 L 104.519531 65.191406 Z M 3.507812 65.191406 "/>
<path style=" stroke:none;fill-rule:nonzero;fill:rgb(100%,100%,100%);fill-opacity:1;" d="M 73.796875 38.589844 L 73.796875 4.59375 L 104.519531 4.59375 L 104.519531 38.589844 Z M 73.796875 38.589844 "/>
<path style=" stroke:none;fill-rule:evenodd;fill:rgb(0%,0%,0%);fill-opacity:1;" d="M 92.804688 16.011719 C 90.980469 16.011719 91.238281 14.457031 91.5 13.417969 C 91.503906 12.378906 92.023438 11.601562 92.023438 10.824219 C 92.28125 10.304688 92.023438 10.042969 91.5 9.785156 C 90.980469 9.785156 90.722656 9.785156 90.460938 9.527344 C 89.679688 9.265625 89.417969 9.007812 88.898438 9.007812 C 88.636719 9.007812 88.636719 9.265625 88.375 9.527344 L 87.335938 9.527344 C 87.074219 9.527344 86.554688 9.527344 86.292969 9.785156 C 86.035156 10.304688 86.03125 10.5625 85.773438 10.824219 C 85.773438 11.34375 85.773438 11.34375 85.773438 11.863281 C 86.035156 11.601562 86.554688 11.34375 86.816406 11.34375 L 87.597656 11.34375 C 87.335938 11.601562 86.554688 11.863281 86.03125 11.863281 C 85.511719 12.121094 85.253906 12.121094 84.730469 11.863281 C 84.472656 11.863281 84.46875 12.121094 84.210938 12.121094 C 84.210938 12.640625 85.253906 12.898438 86.03125 12.898438 C 86.554688 12.898438 86.554688 12.898438 86.816406 12.640625 C 86.816406 12.898438 86.816406 12.898438 86.554688 13.160156 C 86.554688 13.160156 86.554688 13.417969 86.554688 13.417969 C 86.816406 13.417969 87.335938 13.417969 87.855469 12.898438 C 88.117188 12.640625 88.375 12.378906 88.636719 12.121094 C 88.636719 12.898438 88.636719 13.160156 88.375 13.679688 C 88.117188 14.457031 87.855469 14.976562 87.597656 15.234375 C 87.074219 15.753906 86.292969 16.011719 85.773438 16.011719 C 84.472656 16.011719 83.429688 14.714844 83.429688 13.679688 C 83.433594 12.378906 84.210938 10.824219 84.46875 10.042969 C 84.734375 9.785156 84.992188 9.007812 84.46875 8.746094 C 83.953125 8.226562 82.648438 8.230469 81.605469 8.230469 C 79.785156 8.226562 79.265625 8.230469 77.703125 8.488281 L 75.097656 8.488281 C 75.101562 9.785156 75.878906 10.824219 77.183594 11.082031 C 78.226562 11.082031 79.527344 11.082031 80.566406 11.082031 C 80.566406 11.082031 81.605469 11.082031 81.605469 11.34375 C 81.609375 11.34375 81.347656 11.601562 81.347656 11.601562 L 75.097656 11.601562 C 75.101562 12.121094 75.359375 12.640625 75.621094 13.160156 C 76.402344 13.9375 77.703125 14.199219 78.484375 14.199219 C 79.265625 14.195312 79.785156 13.9375 80.304688 14.199219 C 80.828125 14.195312 81.347656 14.199219 81.347656 14.199219 C 81.347656 14.457031 81.089844 14.457031 80.566406 14.457031 L 74.839844 14.457031 C 74.839844 14.976562 75.097656 15.753906 75.621094 16.273438 C 76.140625 16.792969 77.183594 17.050781 77.960938 17.050781 C 79.265625 17.050781 80.046875 17.050781 81.347656 17.050781 C 81.347656 17.050781 81.605469 17.050781 81.605469 17.050781 C 81.609375 17.050781 81.347656 17.050781 81.347656 17.3125 C 80.046875 17.3125 79.265625 17.570312 77.960938 17.570312 C 76.664062 17.828125 76.140625 17.832031 74.839844 18.089844 C 75.101562 18.867188 75.621094 19.386719 76.402344 19.90625 C 76.921875 20.164062 77.703125 20.164062 78.484375 20.164062 C 80.046875 20.164062 81.089844 19.90625 82.648438 19.648438 L 82.910156 19.648438 C 82.910156 19.648438 82.910156 19.90625 82.648438 19.90625 C 81.609375 20.164062 80.304688 20.425781 79.003906 20.945312 C 77.441406 21.464844 76.402344 21.722656 74.839844 21.980469 C 76.140625 23.28125 76.660156 23.800781 77.441406 23.800781 C 78.484375 23.796875 79.527344 23.28125 80.828125 22.761719 C 81.871094 22.242188 82.390625 21.980469 83.167969 21.722656 C 83.433594 21.464844 83.429688 21.464844 83.429688 21.464844 C 83.433594 21.464844 83.429688 21.722656 83.167969 21.722656 C 82.128906 22.5 81.089844 23.019531 79.527344 23.800781 C 78.484375 24.578125 77.960938 24.835938 77.183594 25.355469 C 77.964844 25.875 78.742188 26.132812 80.046875 26.132812 C 80.566406 26.132812 81.089844 26.132812 81.605469 25.617188 C 82.128906 25.355469 82.648438 24.835938 83.167969 24.320312 C 83.691406 23.539062 83.953125 23.28125 84.730469 22.761719 C 84.734375 22.761719 84.992188 22.5 84.992188 22.5 C 84.996094 22.5 84.730469 22.761719 84.730469 22.761719 C 83.691406 24.058594 83.167969 24.835938 82.128906 26.132812 C 83.171875 26.132812 83.953125 26.132812 84.730469 25.617188 C 86.035156 25.097656 86.554688 24.578125 87.335938 23.800781 C 87.335938 23.539062 87.335938 23.800781 87.335938 24.058594 C 87.335938 24.316406 86.554688 25.097656 85.773438 25.617188 C 84.996094 26.132812 84.210938 26.65625 83.429688 27.171875 L 83.691406 27.171875 C 83.953125 27.433594 83.953125 27.433594 83.953125 27.433594 C 83.691406 27.949219 83.167969 28.210938 82.910156 28.46875 C 82.390625 28.730469 81.867188 28.988281 81.605469 28.988281 L 79.785156 28.988281 C 79.785156 28.988281 79.785156 29.25 79.527344 29.25 C 79.265625 29.25 79.003906 29.507812 79.003906 29.765625 C 79.003906 30.285156 79.003906 30.546875 79.265625 30.546875 L 79.527344 30.289062 C 79.785156 30.027344 79.785156 30.027344 79.785156 30.027344 C 79.785156 30.285156 80.046875 30.289062 80.046875 30.289062 C 80.304688 30.285156 80.304688 30.027344 80.566406 30.027344 L 80.828125 30.027344 C 80.566406 30.285156 80.304688 30.546875 80.046875 30.546875 C 79.785156 30.804688 79.785156 30.804688 79.785156 30.804688 C 79.785156 31.066406 79.785156 31.066406 79.785156 31.066406 C 79.527344 31.324219 79.527344 31.582031 79.785156 32.101562 C 79.785156 32.363281 80.046875 32.625 80.566406 32.625 C 80.566406 32.621094 80.566406 32.363281 80.566406 32.101562 C 80.566406 32.101562 80.566406 32.101562 80.566406 31.84375 C 80.566406 31.84375 80.828125 31.84375 80.828125 31.84375 C 81.089844 31.582031 81.089844 31.582031 81.089844 31.324219 C 81.347656 31.066406 81.347656 31.066406 81.605469 30.804688 C 81.609375 31.066406 81.347656 31.324219 81.347656 31.582031 C 81.347656 31.84375 81.347656 32.101562 81.089844 32.363281 L 81.347656 32.625 C 81.347656 33.140625 81.347656 33.402344 81.867188 33.402344 C 82.128906 33.660156 82.648438 33.660156 83.167969 33.660156 C 82.910156 33.660156 82.648438 33.402344 82.390625 33.140625 L 82.390625 32.882812 C 82.390625 32.621094 82.648438 32.625 82.648438 32.625 C 82.648438 32.101562 82.648438 31.84375 82.648438 31.582031 C 82.648438 31.324219 82.910156 30.804688 82.910156 30.804688 C 82.910156 31.066406 83.167969 31.324219 83.429688 31.582031 C 83.433594 31.582031 83.429688 31.84375 83.691406 31.582031 C 83.953125 31.582031 83.953125 31.84375 83.953125 31.84375 C 83.953125 32.101562 83.953125 32.101562 83.953125 32.363281 C 84.210938 32.363281 84.730469 32.101562 84.730469 31.84375 C 84.996094 31.324219 84.730469 30.804688 84.46875 30.804688 C 84.472656 30.546875 84.46875 30.546875 84.46875 30.289062 C 83.953125 30.027344 83.691406 30.027344 83.691406 29.765625 L 83.691406 29.507812 C 83.953125 29.25 83.953125 28.988281 84.210938 28.730469 C 84.472656 28.730469 84.730469 28.46875 84.992188 28.210938 C 84.996094 28.46875 84.992188 28.46875 85.253906 28.730469 C 85.253906 28.988281 85.511719 28.988281 85.511719 29.25 C 85.773438 28.988281 85.773438 28.730469 86.03125 28.46875 C 86.296875 28.210938 86.554688 27.949219 86.816406 27.691406 C 87.074219 27.171875 87.335938 26.914062 87.335938 26.914062 C 87.597656 26.652344 87.597656 27.171875 87.855469 27.433594 C 87.859375 27.691406 87.855469 27.691406 87.855469 27.949219 C 87.597656 28.730469 86.816406 30.289062 86.292969 31.324219 C 85.511719 32.621094 84.46875 33.921875 83.429688 35.21875 L 84.992188 35.21875 C 85.511719 35.21875 86.292969 35.21875 87.074219 34.957031 C 87.335938 35.476562 87.597656 35.734375 87.855469 35.996094 C 88.375 36.515625 88.636719 36.515625 89.160156 37.035156 C 89.679688 36.515625 89.9375 36.515625 90.460938 35.996094 C 90.980469 35.734375 90.980469 35.476562 91.5 34.957031 C 92.023438 35.21875 92.800781 35.21875 93.324219 35.21875 L 95.144531 35.21875 C 93.84375 33.917969 92.800781 32.625 92.023438 31.324219 C 91.503906 30.285156 90.980469 28.730469 90.722656 27.949219 C 90.460938 27.691406 90.460938 27.691406 90.722656 27.433594 C 90.722656 27.171875 90.980469 26.65625 90.980469 26.914062 C 90.980469 26.914062 91.5 27.171875 91.761719 27.691406 C 92.023438 27.949219 92.023438 28.210938 92.28125 28.46875 C 92.542969 28.730469 92.800781 28.988281 92.800781 29.25 C 93.0625 28.988281 93.0625 28.988281 93.0625 28.730469 C 93.324219 28.46875 93.324219 28.46875 93.585938 28.210938 C 93.84375 28.46875 93.84375 28.730469 94.101562 28.730469 C 94.367188 28.988281 94.363281 29.25 94.625 29.507812 C 94.886719 29.507812 94.886719 29.765625 94.625 29.765625 C 94.628906 30.027344 94.363281 30.027344 94.101562 30.289062 C 93.84375 30.546875 93.84375 30.546875 93.84375 30.804688 C 93.84375 30.804688 93.585938 31.324219 93.585938 31.84375 C 93.84375 32.101562 94.101562 32.363281 94.625 32.363281 C 94.367188 32.101562 94.363281 32.101562 94.363281 31.84375 C 94.367188 31.84375 94.625 31.582031 94.625 31.582031 L 94.886719 31.582031 C 94.886719 31.84375 94.886719 31.582031 95.144531 31.582031 C 95.144531 31.324219 95.40625 31.066406 95.40625 30.804688 C 95.667969 30.804688 95.667969 31.324219 95.667969 31.582031 C 95.667969 31.84375 95.667969 32.101562 95.925781 32.625 C 95.929688 32.621094 95.925781 32.625 95.925781 32.882812 C 95.929688 32.882812 95.925781 33.140625 95.925781 33.140625 C 95.667969 33.402344 95.667969 33.660156 95.40625 33.660156 C 95.667969 33.660156 96.1875 33.660156 96.449219 33.402344 C 96.96875 33.402344 96.96875 33.140625 96.96875 32.625 C 97.230469 32.621094 97.230469 32.363281 97.230469 32.363281 C 97.230469 32.101562 96.96875 31.84375 96.96875 31.582031 C 96.96875 31.324219 96.96875 31.066406 96.707031 30.804688 C 96.96875 31.066406 96.96875 31.066406 97.230469 31.324219 C 97.230469 31.582031 97.488281 31.582031 97.488281 31.84375 C 97.75 31.84375 97.75 31.84375 97.75 31.84375 C 98.011719 32.101562 98.007812 32.101562 98.007812 32.101562 C 98.011719 32.363281 98.007812 32.625 97.75 32.625 C 98.269531 32.621094 98.53125 32.363281 98.789062 32.101562 C 98.792969 31.582031 98.789062 31.324219 98.53125 31.066406 C 98.792969 31.066406 98.789062 31.066406 98.789062 30.804688 C 98.53125 30.804688 98.53125 30.804688 98.53125 30.546875 C 98.269531 30.546875 97.75 30.289062 97.488281 30.027344 L 98.007812 30.027344 C 98.011719 30.027344 98.269531 30.289062 98.269531 30.289062 C 98.269531 30.285156 98.53125 30.289062 98.53125 30.027344 C 98.53125 30.027344 98.789062 30.027344 98.789062 30.289062 C 99.050781 30.285156 99.050781 30.546875 99.050781 30.546875 C 99.3125 30.546875 99.570312 30.289062 99.3125 29.765625 C 99.3125 29.507812 99.050781 29.25 98.789062 29.25 C 98.792969 29.25 98.53125 28.988281 98.53125 28.988281 L 96.96875 28.988281 C 96.449219 28.988281 95.925781 28.730469 95.667969 28.46875 C 95.144531 28.210938 94.886719 27.949219 94.363281 27.433594 C 94.367188 27.433594 94.625 27.433594 94.625 27.171875 L 95.144531 27.171875 C 94.105469 26.652344 93.324219 26.132812 92.542969 25.617188 C 92.023438 25.097656 91.238281 24.320312 90.980469 24.058594 C 90.980469 23.796875 90.980469 23.539062 90.980469 23.800781 C 91.761719 24.578125 92.28125 25.097656 93.585938 25.617188 C 94.628906 26.132812 95.144531 26.132812 96.449219 26.132812 C 95.144531 24.835938 94.625 24.058594 93.585938 22.761719 L 93.324219 22.5 C 93.585938 22.5 93.585938 22.761719 93.585938 22.761719 C 94.367188 23.28125 94.625 23.539062 95.144531 24.320312 C 95.929688 24.835938 96.1875 25.355469 96.707031 25.617188 C 97.230469 26.132812 97.75 26.132812 98.53125 26.132812 C 99.570312 26.132812 100.351562 25.875 101.132812 25.355469 C 100.355469 24.835938 99.832031 24.578125 98.789062 23.800781 C 97.492188 23.019531 96.449219 22.5 95.144531 21.722656 L 94.886719 21.464844 C 94.886719 21.464844 95.144531 21.464844 95.144531 21.722656 C 95.929688 21.980469 96.707031 22.242188 97.488281 22.761719 C 98.792969 23.28125 100.09375 23.800781 100.871094 23.800781 C 101.65625 23.796875 102.175781 23.28125 103.476562 21.980469 C 101.914062 21.722656 101.132812 21.464844 99.3125 20.945312 C 98.011719 20.425781 96.707031 20.164062 95.667969 19.90625 C 95.667969 19.90625 95.40625 19.648438 95.40625 19.648438 L 95.925781 19.648438 C 97.230469 19.90625 98.53125 20.164062 99.832031 20.164062 C 100.613281 20.164062 101.394531 20.164062 102.175781 19.90625 C 102.957031 19.386719 103.21875 18.867188 103.476562 18.089844 C 102.175781 17.828125 101.65625 17.832031 100.351562 17.570312 C 99.050781 17.570312 98.269531 17.3125 96.96875 17.3125 C 96.96875 17.050781 96.707031 17.050781 96.707031 17.050781 C 96.96875 17.050781 96.96875 17.050781 96.96875 17.050781 C 98.269531 17.050781 99.3125 17.050781 100.351562 17.050781 C 101.132812 17.050781 102.175781 16.792969 102.957031 16.273438 C 103.476562 15.753906 103.476562 14.976562 103.476562 14.457031 L 97.75 14.457031 C 97.492188 14.457031 96.96875 14.457031 96.96875 14.199219 C 96.96875 14.195312 97.488281 14.199219 98.007812 14.199219 C 98.53125 13.9375 99.3125 14.199219 100.09375 14.199219 C 100.875 14.195312 102.175781 13.9375 102.695312 13.160156 C 103.21875 12.640625 103.21875 12.121094 103.21875 11.601562 L 97.230469 11.601562 C 96.96875 11.601562 96.707031 11.34375 96.707031 11.34375 C 96.707031 11.082031 97.75 11.082031 98.007812 11.082031 C 98.792969 11.082031 100.351562 11.082031 101.132812 11.082031 C 102.4375 10.824219 103.21875 9.785156 103.21875 8.488281 L 100.871094 8.488281 C 99.050781 8.226562 98.53125 8.230469 96.707031 8.230469 C 95.929688 8.226562 94.363281 8.230469 93.84375 8.746094 C 93.585938 9.007812 93.585938 9.785156 93.84375 10.042969 C 94.105469 10.824219 94.886719 12.378906 94.886719 13.679688 C 94.886719 14.714844 93.84375 16.011719 92.804688 16.011719 "/>
<path style=" stroke:none;fill-rule:evenodd;fill:rgb(100%,100%,100%);fill-opacity:1;" d="M 83.953125 31.324219 C 83.953125 31.324219 83.953125 31.324219 83.953125 31.066406 C 84.210938 31.066406 84.210938 31.066406 84.210938 30.804688 C 84.472656 31.066406 84.46875 31.324219 84.46875 31.582031 C 84.472656 31.84375 84.46875 31.84375 84.210938 32.101562 C 84.210938 31.84375 84.210938 31.84375 84.210938 31.582031 C 84.210938 31.582031 83.953125 31.582031 83.953125 31.324219 "/>
<path style=" stroke:none;fill-rule:evenodd;fill:rgb(100%,100%,100%);fill-opacity:1;" d="M 82.128906 32.882812 C 81.871094 32.882812 81.867188 32.882812 81.867188 32.625 C 81.609375 32.621094 81.605469 32.625 81.605469 32.625 C 81.609375 32.882812 81.605469 32.882812 81.605469 33.140625 C 81.871094 33.402344 82.128906 33.402344 82.390625 33.402344 C 82.390625 33.402344 82.128906 33.402344 82.128906 33.140625 Z M 82.128906 32.882812 "/>
<path style=" stroke:none;fill-rule:evenodd;fill:rgb(100%,100%,100%);fill-opacity:1;" d="M 80.304688 31.84375 C 80.304688 31.582031 80.304688 31.582031 80.046875 31.582031 C 80.046875 31.582031 80.046875 31.582031 80.046875 31.324219 C 79.785156 31.582031 79.785156 31.582031 79.785156 31.84375 C 79.785156 32.101562 80.046875 32.363281 80.304688 32.363281 L 80.304688 32.101562 C 80.304688 31.84375 80.304688 31.84375 80.304688 31.84375 "/>
<path style=" stroke:none;fill-rule:evenodd;fill:rgb(100%,100%,100%);fill-opacity:1;" d="M 79.785156 29.25 C 79.527344 29.25 79.527344 29.507812 79.265625 29.507812 C 79.265625 29.765625 79.265625 30.027344 79.265625 30.289062 C 79.265625 30.027344 79.265625 30.027344 79.527344 30.027344 C 79.527344 29.765625 79.785156 29.765625 79.785156 29.765625 C 79.785156 29.765625 79.785156 29.765625 79.785156 29.507812 C 79.785156 29.507812 79.785156 29.507812 79.785156 29.25 "/>
<path style=" stroke:none;fill-rule:evenodd;fill:rgb(65.490196%,49.803922%,16.078431%);fill-opacity:1;" d="M 84.210938 27.691406 C 84.210938 27.691406 84.46875 27.691406 84.46875 27.949219 C 84.472656 27.949219 84.730469 27.949219 84.730469 28.210938 C 84.472656 28.46875 84.210938 28.46875 83.953125 28.730469 C 83.691406 28.988281 83.691406 28.988281 83.429688 29.25 C 83.433594 29.507812 83.429688 29.765625 83.429688 30.027344 C 83.691406 30.285156 83.691406 30.289062 83.953125 30.289062 C 83.953125 30.285156 84.210938 30.546875 84.210938 30.546875 C 84.210938 30.804688 83.953125 30.804688 83.953125 31.066406 C 83.691406 31.066406 83.691406 31.324219 83.691406 31.324219 C 83.433594 31.066406 83.167969 31.066406 83.167969 30.804688 C 82.910156 30.546875 82.648438 30.546875 82.648438 30.804688 C 82.648438 31.066406 82.390625 31.324219 82.390625 31.582031 C 82.390625 32.101562 82.390625 32.101562 82.390625 32.625 C 82.128906 32.621094 82.128906 32.625 81.867188 32.625 C 81.609375 32.363281 81.605469 32.363281 81.347656 32.363281 C 81.609375 32.101562 81.605469 31.84375 81.605469 31.582031 C 81.609375 31.324219 81.867188 31.324219 81.867188 30.804688 C 81.871094 30.804688 81.867188 30.546875 81.867188 30.546875 C 81.609375 30.546875 81.605469 30.546875 81.347656 30.804688 C 81.089844 31.066406 81.089844 31.066406 80.828125 31.324219 C 80.828125 31.324219 80.828125 31.582031 80.566406 31.582031 C 80.566406 31.582031 80.304688 31.582031 80.304688 31.324219 C 80.046875 31.324219 80.046875 31.066406 80.046875 31.066406 C 80.304688 30.804688 80.304688 30.804688 80.566406 30.546875 C 80.828125 30.285156 81.089844 30.289062 81.347656 30.027344 C 81.347656 30.027344 81.347656 30.027344 81.347656 29.765625 L 80.566406 29.765625 C 80.304688 29.765625 80.304688 29.765625 80.046875 30.027344 C 80.046875 29.765625 80.046875 29.765625 80.046875 29.507812 C 80.046875 29.507812 80.046875 29.25 80.046875 29.25 L 82.128906 29.25 C 82.390625 28.988281 82.648438 28.988281 82.910156 28.730469 C 83.433594 28.46875 83.429688 28.46875 83.691406 28.210938 C 83.953125 27.949219 83.953125 27.949219 84.210938 27.691406 "/>
<path style=" stroke:none;fill-rule:nonzero;fill:rgb(97.647059%,81.960784%,0%);fill-opacity:1;" d="M 84.210938 27.691406 C 84.210938 27.691406 84.46875 27.691406 84.46875 27.949219 C 84.472656 27.949219 84.730469 27.949219 84.730469 28.210938 C 84.472656 28.46875 84.210938 28.46875 83.953125 28.730469 C 83.691406 28.988281 83.691406 28.988281 83.429688 29.25 C 83.433594 29.507812 83.429688 29.765625 83.429688 30.027344 C 83.691406 30.285156 83.691406 30.289062 83.953125 30.289062 C 83.953125 30.285156 84.210938 30.546875 84.210938 30.546875 C 84.210938 30.804688 83.953125 30.804688 83.953125 31.066406 C 83.691406 31.066406 83.691406 31.324219 83.691406 31.324219 C 83.433594 31.066406 83.167969 31.066406 83.167969 30.804688 C 82.910156 30.546875 82.648438 30.546875 82.648438 30.804688 C 82.648438 31.066406 82.390625 31.324219 82.390625 31.582031 C 82.390625 32.101562 82.390625 32.101562 82.390625 32.625 C 82.128906 32.621094 82.128906 32.625 81.867188 32.625 C 81.609375 32.363281 81.605469 32.363281 81.347656 32.363281 C 81.609375 32.101562 81.605469 31.84375 81.605469 31.582031 C 81.609375 31.324219 81.867188 31.324219 81.867188 30.804688 C 81.871094 30.804688 81.867188 30.546875 81.867188 30.546875 C 81.609375 30.546875 81.605469 30.546875 81.347656 30.804688 C 81.089844 31.066406 81.089844 31.066406 80.828125 31.324219 C 80.828125 31.324219 80.828125 31.582031 80.566406 31.582031 C 80.566406 31.582031 80.304688 31.582031 80.304688 31.324219 C 80.046875 31.324219 80.046875 31.066406 80.046875 31.066406 C 80.304688 30.804688 80.304688 30.804688 80.566406 30.546875 C 80.828125 30.285156 81.089844 30.289062 81.347656 30.027344 C 81.347656 30.027344 81.347656 30.027344 81.347656 29.765625 L 80.566406 29.765625 C 80.304688 29.765625 80.304688 29.765625 80.046875 30.027344 C 80.046875 29.765625 80.046875 29.765625 80.046875 29.507812 C 80.046875 29.507812 80.046875 29.25 80.046875 29.25 L 82.128906 29.25 C 82.390625 28.988281 82.648438 28.988281 82.910156 28.730469 C 83.433594 28.46875 83.429688 28.46875 83.691406 28.210938 C 83.953125 27.949219 83.953125 27.949219 84.210938 27.691406 Z M 84.210938 27.691406 "/>
<path style=" stroke:none;fill-rule:evenodd;fill:rgb(100%,100%,100%);fill-opacity:1;" d="M 94.367188 31.324219 C 94.367188 31.324219 94.363281 31.324219 94.363281 31.066406 C 94.367188 31.066406 94.101562 31.066406 94.101562 30.804688 C 93.84375 31.066406 93.84375 31.324219 93.84375 31.582031 C 93.84375 31.84375 94.101562 31.84375 94.101562 32.101562 C 94.105469 31.84375 94.101562 31.84375 94.363281 31.582031 C 94.367188 31.582031 94.363281 31.582031 94.367188 31.324219 "/>
<path style=" stroke:none;fill-rule:evenodd;fill:rgb(100%,100%,100%);fill-opacity:1;" d="M 96.1875 32.882812 C 96.449219 32.882812 96.449219 32.882812 96.707031 32.625 C 96.707031 32.621094 96.707031 32.625 96.96875 32.625 C 96.707031 32.882812 96.707031 32.882812 96.707031 33.140625 C 96.449219 33.402344 96.449219 33.402344 95.925781 33.402344 C 96.1875 33.402344 96.1875 33.402344 96.1875 33.140625 C 96.1875 33.140625 96.1875 32.882812 96.1875 32.882812 "/>
<path style=" stroke:none;fill-rule:evenodd;fill:rgb(100%,100%,100%);fill-opacity:1;" d="M 98.011719 31.84375 C 98.269531 31.582031 98.269531 31.582031 98.269531 31.582031 C 98.269531 31.582031 98.269531 31.582031 98.53125 31.324219 C 98.53125 31.582031 98.53125 31.582031 98.53125 31.84375 C 98.53125 32.101562 98.269531 32.363281 98.007812 32.363281 C 98.269531 32.363281 98.269531 32.101562 98.269531 32.101562 C 98.269531 31.84375 98.007812 31.84375 98.011719 31.84375 "/>
<path style=" stroke:none;fill-rule:evenodd;fill:rgb(100%,100%,100%);fill-opacity:1;" d="M 98.53125 29.25 C 98.792969 29.25 98.789062 29.507812 99.050781 29.507812 C 99.050781 29.765625 99.3125 30.027344 99.050781 30.289062 C 99.050781 30.027344 99.050781 30.027344 98.789062 30.027344 C 98.792969 29.765625 98.789062 29.765625 98.53125 29.765625 C 98.53125 29.765625 98.53125 29.765625 98.53125 29.507812 C 98.53125 29.507812 98.53125 29.507812 98.53125 29.25 "/>
<path style=" stroke:none;fill-rule:evenodd;fill:rgb(65.490196%,49.803922%,16.078431%);fill-opacity:1;" d="M 94.105469 27.691406 C 94.105469 27.691406 94.101562 27.691406 93.84375 27.949219 C 93.84375 27.949219 93.84375 27.949219 93.585938 28.210938 C 94.105469 28.46875 94.101562 28.46875 94.363281 28.730469 C 94.628906 28.988281 94.886719 28.988281 94.886719 29.25 C 95.144531 29.507812 95.144531 29.765625 94.886719 30.027344 C 94.628906 30.285156 94.625 30.289062 94.363281 30.289062 C 94.367188 30.285156 94.363281 30.546875 94.101562 30.546875 C 94.367188 30.804688 94.363281 30.804688 94.363281 31.066406 C 94.628906 31.066406 94.625 31.324219 94.886719 31.324219 C 95.144531 31.066406 95.144531 31.066406 95.40625 30.804688 C 95.40625 30.546875 95.667969 30.546875 95.667969 30.804688 C 95.929688 31.066406 95.925781 31.324219 95.925781 31.582031 C 95.929688 32.101562 95.925781 32.101562 96.1875 32.625 C 96.1875 32.621094 96.449219 32.625 96.449219 32.625 C 96.707031 32.363281 96.707031 32.363281 96.96875 32.363281 C 96.96875 32.101562 96.707031 31.84375 96.707031 31.582031 C 96.707031 31.324219 96.707031 31.324219 96.449219 30.804688 C 96.449219 30.804688 96.449219 30.546875 96.707031 30.546875 C 96.707031 30.546875 96.96875 30.546875 96.96875 30.804688 C 97.230469 31.066406 97.230469 31.066406 97.488281 31.324219 C 97.492188 31.324219 97.75 31.582031 97.75 31.582031 C 98.011719 31.582031 98.007812 31.582031 98.007812 31.324219 C 98.269531 31.324219 98.269531 31.066406 98.53125 31.066406 C 98.269531 30.804688 98.007812 30.804688 97.75 30.546875 C 97.492188 30.285156 97.488281 30.289062 97.230469 30.027344 C 96.96875 30.027344 96.96875 30.027344 96.96875 29.765625 L 98.007812 29.765625 C 98.011719 29.765625 98.269531 29.765625 98.269531 30.027344 C 98.269531 29.765625 98.269531 29.765625 98.269531 29.507812 C 98.269531 29.507812 98.269531 29.25 98.269531 29.25 L 96.1875 29.25 C 95.929688 28.988281 95.667969 28.988281 95.40625 28.730469 C 95.144531 28.46875 94.886719 28.46875 94.625 28.210938 C 94.367188 27.949219 94.363281 27.949219 94.105469 27.691406 "/>
<path style=" stroke:none;fill-rule:nonzero;fill:rgb(97.647059%,81.960784%,0%);fill-opacity:1;" d="M 94.105469 27.691406 C 94.105469 27.691406 94.101562 27.691406 93.84375 27.949219 C 93.84375 27.949219 93.84375 27.949219 93.585938 28.210938 C 94.105469 28.46875 94.101562 28.46875 94.363281 28.730469 C 94.628906 28.988281 94.886719 28.988281 94.886719 29.25 C 95.144531 29.507812 95.144531 29.765625 94.886719 30.027344 C 94.628906 30.285156 94.625 30.289062 94.363281 30.289062 C 94.367188 30.285156 94.363281 30.546875 94.101562 30.546875 C 94.367188 30.804688 94.363281 30.804688 94.363281 31.066406 C 94.628906 31.066406 94.625 31.324219 94.886719 31.324219 C 95.144531 31.066406 95.144531 31.066406 95.40625 30.804688 C 95.40625 30.546875 95.667969 30.546875 95.667969 30.804688 C 95.929688 31.066406 95.925781 31.324219 95.925781 31.582031 C 95.929688 32.101562 95.925781 32.101562 96.1875 32.625 C 96.1875 32.621094 96.449219 32.625 96.449219 32.625 C 96.707031 32.363281 96.707031 32.363281 96.96875 32.363281 C 96.96875 32.101562 96.707031 31.84375 96.707031 31.582031 C 96.707031 31.324219 96.707031 31.324219 96.449219 30.804688 C 96.449219 30.804688 96.449219 30.546875 96.707031 30.546875 C 96.707031 30.546875 96.96875 30.546875 96.96875 30.804688 C 97.230469 31.066406 97.230469 31.066406 97.488281 31.324219 C 97.492188 31.324219 97.75 31.582031 97.75 31.582031 C 98.011719 31.582031 98.007812 31.582031 98.007812 31.324219 C 98.269531 31.324219 98.269531 31.066406 98.53125 31.066406 C 98.269531 30.804688 98.007812 30.804688 97.75 30.546875 C 97.492188 30.285156 97.488281 30.289062 97.230469 30.027344 C 96.96875 30.027344 96.96875 30.027344 96.96875 29.765625 L 98.007812 29.765625 C 98.011719 29.765625 98.269531 29.765625 98.269531 30.027344 C 98.269531 29.765625 98.269531 29.765625 98.269531 29.507812 C 98.269531 29.507812 98.269531 29.25 98.269531 29.25 L 96.1875 29.25 C 95.929688 28.988281 95.667969 28.988281 95.40625 28.730469 C 95.144531 28.46875 94.886719 28.46875 94.625 28.210938 C 94.367188 27.949219 94.363281 27.949219 94.105469 27.691406 Z M 94.105469 27.691406 "/>
<path style=" stroke:none;fill-rule:evenodd;fill:rgb(93.333333%,10.980392%,16.470588%);fill-opacity:1;" d="M 84.734375 12.378906 L 85.773438 12.378906 C 86.554688 12.121094 87.074219 11.863281 87.855469 11.601562 L 87.859375 11.601562 C 87.597656 12.121094 87.074219 12.640625 86.292969 12.640625 C 85.511719 12.640625 84.730469 12.378906 84.734375 12.378906 "/>
<path style=" stroke:none;fill-rule:evenodd;fill:rgb(65.490196%,49.803922%,16.078431%);fill-opacity:1;" d="M 87.074219 13.160156 C 87.335938 12.898438 87.335938 12.640625 87.597656 12.378906 C 87.859375 12.121094 88.117188 11.863281 88.375 11.34375 L 88.117188 11.34375 C 87.597656 11.082031 87.335938 11.082031 86.816406 11.082031 C 86.554688 11.082031 86.292969 11.082031 86.03125 11.34375 C 86.035156 11.082031 86.03125 10.824219 86.292969 10.5625 C 86.296875 10.304688 86.292969 10.304688 86.554688 10.042969 C 86.554688 9.785156 87.074219 9.785156 87.335938 9.785156 C 87.597656 9.785156 87.855469 9.527344 88.375 9.785156 C 88.375 9.785156 88.117188 10.042969 88.117188 10.042969 C 88.117188 10.5625 88.375 10.824219 88.375 11.082031 C 88.636719 11.34375 88.636719 11.601562 88.636719 11.863281 C 88.375 12.121094 88.375 12.121094 88.117188 12.378906 C 87.597656 12.640625 87.335938 12.898438 87.074219 13.160156 "/>
<path style=" stroke:none;fill-rule:nonzero;fill:rgb(97.647059%,81.960784%,0%);fill-opacity:1;" d="M 87.074219 13.160156 C 87.335938 12.898438 87.335938 12.640625 87.597656 12.378906 C 87.859375 12.121094 88.117188 11.863281 88.375 11.34375 L 88.117188 11.34375 C 87.597656 11.082031 87.335938 11.082031 86.816406 11.082031 C 86.554688 11.082031 86.292969 11.082031 86.03125 11.34375 C 86.035156 11.082031 86.03125 10.824219 86.292969 10.5625 C 86.296875 10.304688 86.292969 10.304688 86.554688 10.042969 C 86.554688 9.785156 87.074219 9.785156 87.335938 9.785156 C 87.597656 9.785156 87.855469 9.527344 88.375 9.785156 C 88.375 9.785156 88.117188 10.042969 88.117188 10.042969 C 88.117188 10.5625 88.375 10.824219 88.375 11.082031 C 88.636719 11.34375 88.636719 11.601562 88.636719 11.863281 C 88.375 12.121094 88.375 12.121094 88.117188 12.378906 C 87.597656 12.640625 87.335938 12.898438 87.074219 13.160156 Z M 87.074219 13.160156 "/>
<path style=" stroke:none;fill-rule:evenodd;fill:rgb(100%,100%,100%);fill-opacity:1;" d="M 89.679688 10.042969 C 89.417969 10.042969 89.417969 10.304688 89.417969 10.304688 C 89.417969 10.304688 89.417969 10.5625 89.679688 10.5625 L 89.9375 10.5625 C 89.941406 10.304688 89.9375 10.304688 89.9375 10.304688 C 89.941406 10.304688 89.9375 10.304688 90.199219 10.304688 C 90.199219 10.304688 90.460938 10.304688 90.460938 10.5625 L 90.460938 10.824219 C 90.199219 10.824219 90.199219 10.5625 89.9375 10.824219 L 89.679688 10.824219 C 89.417969 10.824219 89.160156 10.824219 89.160156 10.304688 C 89.160156 10.304688 88.898438 10.304688 88.898438 10.042969 Z M 89.679688 10.042969 "/>
<path style=" stroke:none;fill-rule:evenodd;fill:rgb(100%,100%,100%);fill-opacity:1;" d="M 35.425781 80.242188 C 35.425781 80.5 35.425781 80.761719 35.425781 81.019531 C 35.425781 81.539062 35.683594 81.800781 35.945312 82.058594 L 35.945312 81.539062 L 36.726562 81.539062 C 36.46875 81.28125 36.207031 81.28125 35.945312 81.019531 C 35.6875 80.761719 35.683594 80.5 35.425781 80.242188 M 33.863281 96.332031 C 33.863281 96.589844 33.863281 97.109375 34.382812 97.109375 C 34.382812 97.109375 34.382812 96.851562 34.382812 96.851562 C 34.644531 96.851562 34.382812 96.59375 34.644531 96.59375 C 34.644531 96.332031 34.644531 96.332031 34.90625 96.070312 C 34.90625 96.070312 34.90625 95.8125 34.644531 95.8125 C 34.644531 95.8125 34.382812 95.8125 34.382812 95.8125 C 34.125 95.8125 33.863281 96.070312 33.863281 96.332031 M 32.824219 96.332031 C 32.824219 96.589844 33.082031 97.109375 33.34375 97.109375 C 33.34375 97.109375 33.34375 96.851562 33.601562 96.851562 C 33.605469 96.851562 33.601562 96.59375 33.601562 96.59375 C 33.605469 96.332031 33.863281 96.332031 33.863281 96.070312 C 33.863281 96.070312 33.863281 95.8125 33.601562 95.8125 C 33.605469 95.8125 33.601562 95.8125 33.34375 95.8125 C 33.082031 95.8125 32.820312 96.070312 32.824219 96.332031 M 43.757812 100.222656 C 43.757812 100.484375 43.757812 101.003906 44.015625 101.003906 C 44.277344 101.003906 44.277344 100.742188 44.277344 100.742188 C 44.539062 100.742188 44.277344 100.484375 44.277344 100.484375 C 44.539062 100.222656 44.535156 100.226562 44.796875 99.964844 C 44.796875 99.964844 44.535156 99.703125 44.535156 99.703125 L 44.277344 99.703125 C 44.015625 99.703125 43.757812 99.964844 43.757812 100.222656 M 42.714844 100.222656 C 42.714844 100.484375 42.714844 101.003906 43.234375 101.003906 C 43.234375 101.003906 43.234375 100.742188 43.234375 100.742188 C 43.496094 100.742188 43.496094 100.484375 43.496094 100.484375 C 43.496094 100.222656 43.496094 100.226562 43.757812 99.964844 C 43.757812 99.964844 43.757812 99.703125 43.496094 99.703125 L 43.234375 99.703125 C 42.976562 99.703125 42.714844 99.964844 42.714844 100.222656 M 59.117188 100.222656 C 59.117188 100.484375 59.375 101.003906 59.636719 101.003906 C 59.636719 101.003906 59.636719 100.742188 59.898438 100.742188 C 59.898438 100.742188 59.898438 100.484375 59.898438 100.484375 C 59.898438 100.222656 60.15625 100.226562 60.15625 99.964844 C 60.160156 99.964844 60.15625 99.703125 60.15625 99.703125 L 59.636719 99.703125 C 59.378906 99.703125 59.117188 99.964844 59.117188 100.222656 M 58.335938 100.222656 C 58.335938 100.484375 58.335938 101.003906 58.59375 101.003906 C 58.855469 101.003906 58.855469 100.742188 58.855469 100.742188 C 58.855469 100.742188 58.855469 100.484375 58.855469 100.484375 C 58.855469 100.222656 59.117188 100.226562 59.117188 99.964844 C 59.117188 99.964844 59.117188 99.703125 59.117188 99.703125 L 58.59375 99.703125 C 58.335938 99.703125 58.335938 99.964844 58.335938 100.222656 M 72.394531 100.222656 C 72.394531 100.484375 72.652344 101.003906 72.914062 101.003906 C 72.914062 101.003906 72.914062 100.742188 72.914062 100.742188 C 73.175781 100.742188 73.175781 100.484375 73.175781 100.484375 C 73.175781 100.222656 73.175781 100.226562 73.433594 99.964844 C 73.4375 99.964844 73.433594 99.703125 73.175781 99.703125 L 72.914062 99.703125 C 72.65625 99.703125 72.394531 99.964844 72.394531 100.222656 M 71.355469 100.222656 C 71.355469 100.484375 71.613281 101.003906 71.875 101.003906 C 71.875 101.003906 71.875 100.742188 72.132812 100.742188 C 72.132812 100.742188 72.132812 100.484375 72.132812 100.484375 C 72.132812 100.222656 72.394531 100.226562 72.394531 99.964844 C 72.394531 99.964844 72.394531 99.703125 72.394531 99.703125 L 71.875 99.703125 C 71.613281 99.703125 71.351562 99.964844 71.355469 100.222656 "/>
<path style=" stroke:none;fill-rule:evenodd;fill:rgb(100%,100%,100%);fill-opacity:1;" d="M 58.335938 126.433594 C 56.773438 126.433594 55.472656 126.695312 54.167969 126.695312 C 52.867188 126.695312 51.566406 126.433594 50.003906 126.433594 L 50.003906 116.054688 C 50.003906 113.976562 51.828125 112.160156 54.167969 112.160156 C 56.515625 112.160156 58.335938 113.976562 58.335938 116.054688 Z M 58.335938 126.433594 "/>
<path style=" stroke:none;fill-rule:evenodd;fill:rgb(84.705882%,12.54902%,12.156863%);fill-opacity:1;" d="M 54.171875 109.046875 C 53.128906 109.046875 52.347656 109.308594 51.566406 109.566406 L 52.347656 111.902344 C 52.867188 111.640625 53.648438 111.640625 54.167969 111.640625 C 54.691406 111.640625 55.472656 111.640625 55.992188 111.902344 L 56.773438 109.566406 C 55.992188 109.308594 55.210938 109.046875 54.171875 109.046875 M 58.335938 113.976562 L 60.160156 112.941406 C 60.679688 113.71875 60.9375 114.757812 60.9375 115.796875 L 60.941406 116.054688 L 58.855469 116.054688 C 58.855469 115.277344 58.59375 114.757812 58.335938 113.976562 M 59.898438 112.421875 C 59.378906 111.382812 58.335938 110.605469 57.292969 109.828125 L 56.253906 112.160156 C 57.035156 112.421875 57.554688 112.941406 58.074219 113.71875 Z M 58.855469 123.578125 L 58.855469 120.464844 L 60.941406 120.464844 L 60.941406 123.578125 Z M 58.855469 119.945312 L 58.855469 116.574219 L 60.941406 116.574219 L 60.941406 119.945312 Z M 50.003906 113.976562 L 48.183594 112.941406 C 47.660156 113.71875 47.402344 114.757812 47.402344 115.796875 L 47.402344 116.054688 L 49.484375 116.054688 C 49.484375 115.277344 49.742188 114.757812 50.003906 113.976562 M 48.441406 112.421875 C 48.964844 111.382812 50.003906 110.605469 51.046875 109.828125 L 52.085938 112.160156 C 51.308594 112.421875 50.785156 112.941406 50.265625 113.71875 Z M 47.402344 123.578125 L 47.402344 120.464844 L 49.484375 120.464844 L 49.484375 123.578125 Z M 47.402344 119.945312 L 47.402344 116.574219 L 49.484375 116.574219 L 49.484375 119.945312 Z M 49.484375 126.433594 C 48.964844 126.433594 48.183594 126.175781 47.402344 126.175781 L 47.402344 124.097656 L 49.484375 124.097656 Z M 60.941406 126.175781 C 60.160156 126.175781 59.375 126.433594 58.855469 126.433594 L 58.855469 124.097656 L 60.941406 124.097656 Z M 57.035156 109.046875 L 57.292969 109.046875 L 57.292969 109.308594 C 57.035156 109.308594 57.035156 109.046875 57.035156 109.046875 Z M 51.046875 109.046875 L 51.308594 109.046875 L 51.046875 109.308594 Z M 84.890625 104.894531 L 84.890625 101.523438 L 90.878906 101.523438 L 90.878906 104.894531 Z M 71.355469 104.894531 L 71.355469 101.523438 L 77.601562 101.523438 L 77.601562 104.894531 Z M 57.816406 104.894531 L 57.816406 101.523438 L 64.0625 101.523438 L 64.0625 104.894531 Z M 17.460938 104.894531 L 17.460938 101.523438 L 23.449219 101.523438 L 23.449219 104.894531 Z M 30.738281 104.894531 L 30.738281 101.523438 L 36.988281 101.523438 L 36.988281 104.894531 Z M 44.277344 104.894531 L 44.277344 101.523438 L 50.527344 101.523438 L 50.527344 104.894531 Z M 64.585938 124.097656 L 69.792969 124.097656 C 67.96875 124.617188 66.40625 125.136719 64.582031 125.65625 Z M 61.460938 124.097656 L 64.0625 124.097656 L 64.0625 125.65625 C 63.28125 125.914062 62.242188 125.917969 61.460938 126.175781 Z M 38.550781 124.097656 L 43.757812 124.097656 L 43.757812 125.65625 C 41.933594 125.136719 40.371094 124.617188 38.550781 124.097656 M 44.277344 124.097656 L 46.882812 124.097656 L 46.882812 126.175781 C 46.101562 125.914062 45.058594 125.917969 44.277344 125.65625 Z M 74.738281 120.464844 L 78.382812 120.464844 C 77.082031 120.984375 76.039062 121.761719 74.738281 122.285156 Z M 67.96875 120.464844 L 74.21875 120.464844 L 74.21875 122.542969 C 73.175781 122.800781 72.132812 123.320312 71.351562 123.578125 L 67.96875 123.578125 Z M 61.460938 123.578125 L 61.460938 120.464844 L 67.449219 120.464844 L 67.449219 123.578125 Z M 29.957031 120.464844 L 33.605469 120.464844 L 33.605469 122.28125 C 32.300781 121.761719 31 120.984375 29.957031 120.464844 M 34.125 120.464844 L 40.371094 120.464844 L 40.371094 123.578125 L 36.988281 123.578125 C 36.207031 123.320312 35.164062 122.800781 34.125 122.542969 Z M 40.894531 123.578125 L 40.894531 120.464844 L 46.882812 120.464844 L 46.882812 123.578125 Z M 78.121094 116.574219 L 84.371094 116.574219 C 82.808594 117.871094 80.984375 118.910156 79.425781 119.945312 L 78.121094 119.945312 Z M 71.355469 119.945312 L 71.355469 116.574219 L 77.601562 116.574219 L 77.601562 119.945312 Z M 64.585938 119.945312 L 64.585938 116.574219 L 70.832031 116.574219 L 70.832031 119.945312 Z M 61.460938 119.945312 L 61.460938 116.574219 L 64.0625 116.574219 L 64.0625 119.945312 Z M 23.972656 116.574219 L 30.21875 116.574219 L 30.21875 119.945312 L 28.917969 119.945312 C 27.355469 118.910156 25.53125 117.871094 23.96875 116.574219 Z M 30.738281 119.945312 L 30.738281 116.574219 L 36.988281 116.574219 L 36.988281 119.945312 Z M 37.507812 119.945312 L 37.507812 116.574219 L 43.757812 116.574219 L 43.757812 119.945312 Z M 44.277344 119.945312 L 44.277344 116.574219 L 46.882812 116.574219 L 46.882812 119.945312 Z M 88.277344 112.941406 L 88.796875 112.941406 C 88.535156 113.199219 88.273438 113.199219 88.273438 113.460938 Z M 81.507812 112.941406 L 87.496094 112.941406 L 87.496094 113.976562 C 86.714844 114.757812 85.933594 115.535156 84.890625 116.054688 L 81.507812 116.054688 Z M 74.738281 116.054688 L 74.738281 112.941406 L 80.984375 112.941406 L 80.984375 116.054688 Z M 67.96875 116.054688 L 67.96875 112.941406 L 74.21875 112.941406 L 74.21875 116.054688 Z M 61.199219 112.941406 L 67.449219 112.941406 L 67.449219 116.054688 L 61.460938 116.054688 L 61.460938 115.792969 C 61.460938 115.277344 61.460938 114.496094 61.199219 113.976562 Z M 19.546875 112.941406 L 20.066406 112.941406 L 20.066406 113.460938 C 20.066406 113.199219 19.804688 113.199219 19.546875 112.941406 M 20.585938 112.941406 L 26.835938 112.941406 L 26.835938 116.054688 L 23.449219 116.054688 C 22.410156 115.535156 21.625 114.757812 20.585938 113.976562 Z M 27.355469 116.054688 L 27.355469 112.941406 L 33.605469 112.941406 L 33.605469 116.054688 Z M 34.125 116.054688 L 34.125 112.941406 L 40.371094 112.941406 L 40.371094 116.054688 Z M 40.894531 112.941406 L 47.140625 112.941406 L 47.140625 113.976562 C 46.882812 114.496094 46.878906 115.277344 46.878906 115.796875 L 46.882812 116.054688 L 40.894531 116.054688 Z M 91.660156 109.046875 L 92.441406 109.046875 C 92.179688 109.566406 91.917969 109.828125 91.660156 110.085938 Z M 84.890625 109.046875 L 90.878906 109.046875 L 90.878906 110.605469 C 90.359375 111.382812 89.835938 111.902344 89.316406 112.421875 L 84.890625 112.421875 Z M 78.121094 112.421875 L 78.121094 109.046875 L 84.371094 109.046875 L 84.371094 112.421875 Z M 71.355469 112.421875 L 71.355469 109.046875 L 77.601562 109.046875 L 77.601562 112.421875 Z M 64.585938 112.421875 L 64.585938 109.046875 L 70.832031 109.046875 L 70.832031 112.421875 Z M 57.816406 109.046875 L 64.0625 109.046875 L 64.0625 112.421875 L 60.679688 112.421875 C 59.898438 111.125 58.855469 110.34375 57.816406 109.566406 Z M 15.898438 109.046875 L 16.679688 109.046875 L 16.679688 110.085938 C 16.421875 109.824219 16.160156 109.566406 15.898438 109.046875 M 17.460938 109.046875 L 23.449219 109.046875 L 23.449219 112.421875 L 19.023438 112.421875 C 18.503906 111.902344 17.980469 111.382812 17.460938 110.605469 Z M 23.972656 112.421875 L 23.972656 109.046875 L 30.21875 109.046875 L 30.21875 112.421875 Z M 30.738281 112.421875 L 30.738281 109.046875 L 36.988281 109.046875 L 36.988281 112.421875 Z M 37.507812 112.421875 L 37.507812 109.046875 L 43.757812 109.046875 L 43.757812 112.421875 Z M 44.277344 109.046875 L 50.527344 109.046875 L 50.527344 109.566406 C 49.484375 110.34375 48.441406 111.125 47.660156 112.421875 L 44.277344 112.421875 Z M 94.785156 105.414062 L 95.304688 105.414062 C 95.304688 105.671875 95.042969 105.671875 94.78125 105.933594 Z M 88.277344 105.414062 L 94.265625 105.414062 L 94.265625 106.710938 C 94.003906 107.230469 93.480469 108.007812 92.960938 108.527344 L 88.277344 108.527344 Z M 81.507812 108.527344 L 81.507812 105.414062 L 87.496094 105.414062 L 87.496094 108.527344 Z M 74.738281 108.527344 L 74.738281 105.414062 L 80.984375 105.414062 L 80.984375 108.527344 Z M 67.96875 108.527344 L 67.96875 105.414062 L 74.21875 105.414062 L 74.21875 108.527344 Z M 61.199219 108.527344 L 61.199219 105.414062 L 67.449219 105.414062 L 67.449219 108.527344 Z M 54.429688 108.527344 L 54.429688 105.414062 L 60.679688 105.414062 L 60.679688 108.527344 Z M 13.035156 105.414062 L 13.296875 105.414062 L 13.296875 105.933594 C 13.296875 105.671875 13.035156 105.671875 13.035156 105.414062 M 20.585938 108.527344 L 20.585938 105.414062 L 26.835938 105.414062 L 26.835938 108.527344 Z M 27.355469 108.527344 L 27.355469 105.414062 L 33.605469 105.414062 L 33.605469 108.527344 Z M 34.125 108.527344 L 34.125 105.414062 L 40.371094 105.414062 L 40.371094 108.527344 Z M 40.894531 108.527344 L 40.894531 105.414062 L 47.140625 105.414062 L 47.140625 108.527344 Z M 47.660156 108.527344 L 47.660156 105.414062 L 53.910156 105.414062 L 53.910156 108.527344 Z M 14.078125 105.414062 L 20.066406 105.414062 L 20.066406 108.527344 L 15.378906 108.527344 C 14.859375 108.007812 14.335938 107.230469 14.078125 106.710938 Z M 14.078125 105.414062 "/>
<path style="fill-rule:evenodd;fill:rgb(25.490196%,70.588235%,26.666667%);fill-opacity:1;stroke-width:2;stroke-linecap:butt;stroke-linejoin:miter;stroke:rgb(0%,0%,0%);stroke-opacity:1;stroke-miterlimit:4;" d="M 18.775246 22.976773 L 18.775246 101.877764 L 409.909505 365.53774 L 536.927951 366.18101 L 536.927951 364.874369 C 536.807726 364.733654 536.707538 364.552734 536.587312 364.412019 L 536.587312 359.185457 L 536.927951 326.117398 C 524.905382 342.138822 508.915365 342.138822 498.215278 335.464904 C 488.877749 328.790986 483.547743 320.790325 484.870226 308.789333 C 483.527705 308.789333 483.527705 308.769231 482.185185 307.442488 L 480.88274 306.095643 C 470.182653 311.442819 460.825087 310.116076 451.46752 303.442157 C 439.464988 295.421394 434.114945 278.033023 448.802517 259.338011 C 448.802517 259.338011 447.459997 258.03137 446.117477 258.03137 C 444.794994 256.684525 444.815032 256.684525 443.472512 255.33768 C 431.449942 276.70628 412.734809 278.053125 400.71224 270.032362 C 392.717231 263.358444 387.387225 255.357782 388.709708 243.336689 C 387.387225 243.336689 387.387225 243.336689 386.024667 242.009946 C 386.024667 242.009946 384.722222 241.989844 384.722222 240.663101 C 374.042173 246.010276 363.322049 244.683534 355.307002 239.336358 C 343.284433 231.335697 337.974465 213.947326 352.662037 193.905469 C 351.319517 193.905469 349.997034 192.598828 349.997034 192.598828 C 348.654514 191.251983 347.311994 191.231881 347.311994 189.905138 C 335.289424 211.273738 316.614366 212.600481 304.591797 204.59982 C 295.254268 199.252644 291.226707 189.905138 291.226707 179.210787 C 291.226707 177.884044 289.884187 177.904147 289.884187 177.904147 C 288.541667 176.557302 288.561704 176.557302 287.219184 176.557302 C 277.861617 181.904477 267.201606 179.250992 259.18656 173.903816 C 247.16399 165.883053 240.471427 148.534886 256.501519 128.493029 C 255.158999 128.493029 253.836516 128.493029 252.493996 127.166286 C 252.493996 127.166286 251.151476 125.799339 249.808955 124.472596 C 237.786386 147.167939 220.453848 147.167939 208.431279 139.147175 C 199.09375 133.820102 193.723669 124.452494 195.066189 113.778245 C 195.066189 113.778245 193.763744 112.471605 193.743707 112.471605 C 192.421224 112.471605 192.401186 111.12476 191.058666 111.12476 C 180.378617 116.471935 171.041088 115.12509 161.683521 108.43107 C 149.660952 100.430409 144.330946 83.062139 160.341001 64.367127 C 159.018519 63.040385 157.675998 63.060487 156.353516 61.713642 C 155.010995 61.713642 154.990958 60.366797 153.648438 60.366797 C 141.645906 81.735397 122.970848 83.082242 110.928241 75.061478 C 102.933232 68.38756 97.583189 60.366797 98.905671 48.345703 C 97.563151 48.345703 97.583189 47.039062 96.240668 47.039062 C 96.240668 47.039062 94.918186 45.692218 94.898148 45.692218 C 84.218099 51.019291 74.88057 49.672446 65.523003 42.998528 C 58.850477 38.998197 54.862992 32.324279 53.540509 22.976773 Z M 18.775246 22.976773 " transform="matrix(0.194946,0,0,0.19432,0,0)"/>
<path style="fill-rule:evenodd;fill:rgb(25.490196%,70.588235%,26.666667%);fill-opacity:1;stroke-width:2;stroke-linecap:butt;stroke-linejoin:miter;stroke:rgb(0%,0%,0%);stroke-opacity:1;stroke-miterlimit:4;" d="M 62.196759 22.976773 C 65.242477 29.168239 74.80042 28.283744 79.970124 24.685457 C 89.828631 20.262981 82.27445 20.785637 75.902488 20.966556 C 72.135417 22.072175 62.517361 18.634706 62.196759 22.976773 Z M 102.873119 21.348498 C 93.255064 21.328395 86.382161 32.625811 91.131076 41.129026 C 95.058449 50.255409 108.183087 53.130018 115.116102 45.812831 C 124.313368 36.545733 115.236328 20.383594 102.873119 21.348498 Z M 162.865741 36.163792 C 155.612124 36.545733 149.961516 44.204657 149.320312 50.195102 C 143.309028 41.370252 128.120515 42.254748 123.912616 52.346034 C 118.021557 64.146004 133.590784 77.815475 144.591435 70.779718 C 149.019748 68.528275 151.764902 63.382121 151.684751 58.678215 C 153.989077 62.316707 158.016638 64.829477 162.384838 64.990294 C 151.624638 68.709195 150.141855 85.595012 160.381076 90.821575 C 169.097439 96.369772 182.001664 89.535036 182.001664 79.061809 C 182.963469 71.483293 176.090567 64.769171 169.25774 64.125901 C 176.811921 62.2564 180.138166 53.733083 177.653501 46.757632 C 175.910229 40.32494 169.738643 35.319501 162.865741 36.163792 Z M 199.133825 86.78104 C 187.171369 87.223287 182.522642 104.511148 191.459418 111.808233 C 198.532697 118.84399 210.895906 114.622536 214.162037 105.817788 C 217.688657 98.962951 213.340495 90.660757 206.347367 88.288702 C 204.123192 87.162981 201.61849 86.60012 199.133825 86.78104 Z M 258.525318 101.536028 C 251.371889 102.038582 246.923539 109.416076 246.843388 116.069892 C 242.575376 108.109435 231.133898 106.01881 224.441334 112.250481 C 214.061849 120.030018 222.157046 140.473918 235.522135 137.559105 C 242.555339 136.574099 248.746962 129.699159 248.867188 123.366977 C 250.971137 127.246695 256.120804 129.819772 259.627387 130.161508 C 249.728805 132.513462 246.142072 146.34375 253.716291 153.178486 C 259.366898 159.8122 271.690032 159.973017 275.396991 151.288882 C 280.726997 144.57476 278.122106 133.558774 269.806496 130.684165 C 268.163411 129.61875 263.053819 129.839874 267.341869 128.754357 C 276.639323 125.015355 278.202257 111.285577 270.147135 105.415745 C 266.881004 102.722055 262.833406 100.973167 258.525318 101.536028 Z M 297.718895 151.871845 C 287.660012 151.670823 279.624928 162.78732 284.033203 172.094621 C 287.539786 182.266316 303.429615 183.934796 308.559245 174.225451 C 315.592448 165.661929 309.701389 150.384285 297.718895 151.871845 Z M 356.028356 166.908263 C 348.894965 167.089183 343.043981 174.145042 342.903718 180.557632 C 338.154803 171.411148 323.326968 171.471454 318.898655 180.879267 C 312.686994 188.678906 318.016999 203.092157 328.757161 202.569501 C 336.892433 203.474099 344.827329 196.639363 345.027705 188.598498 C 346.871166 192.719441 352.321398 194.930679 355.687717 195.533744 C 347.59252 197.72488 343.404659 207.655349 347.812934 214.91223 C 351.059028 222.772175 361.338325 225.747296 368.27134 220.741857 C 375.925709 216.801833 377.388455 206.248197 371.998336 199.815505 C 369.894387 196.619261 366.407841 194.789964 362.660807 194.629147 C 373.501157 190.950451 374.943866 173.622386 364.343967 168.757662 C 361.759115 167.471124 358.933811 166.727344 356.028356 166.908263 Z M 393.258247 216.39979 C 381.816768 216.721424 374.40285 232.280499 382.718461 240.74351 C 390.272642 249.990505 409.288339 244.522716 408.086082 231.717638 C 408.10612 223.716977 401.734158 215.776623 393.258247 216.39979 Z M 453.250868 232.059375 C 445.937138 232.48152 438.923973 238.652885 439.224537 246.251502 C 434.175058 235.697867 416.541956 237.145222 413.416088 248.46274 C 407.985894 261.066797 426.079861 273.570343 436.118707 264.745493 C 439.184462 261.710066 441.308449 257.46851 441.128111 253.086238 C 443.312211 256.845343 447.480035 259.599339 451.367332 260.684856 C 442.39048 265.489273 440.086155 279.359766 448.381727 285.872867 C 457.719256 292.22515 473.14822 284.445613 471.8057 272.565234 C 471.485098 266.333564 466.856409 260.544141 460.524523 259.438522 C 472.206453 254.392879 469.96224 233.848468 457.338542 232.179988 C 455.996021 231.958864 454.613426 231.938762 453.250868 232.059375 Z M 488.216508 281.81223 C 475.953487 282.998257 472.266565 301.954597 482.846427 308.065655 C 492.123843 314.920493 507.352431 306.236358 504.967954 294.536899 C 503.865885 286.918179 495.790726 280.967939 488.216508 281.81223 Z M 522.180266 304.467368 C 514.445747 304.608083 507.973597 311.804657 509.716869 319.624399 C 510.29796 329.695583 522.140191 336.630829 531.036892 331.444471 C 540.474609 327.0622 540.13397 312.970583 531.97866 307.563101 C 529.273582 305.291556 525.686849 304.226142 522.180266 304.467368 Z M 522.180266 304.467368 " transform="matrix(0.194946,0,0,0.19432,0,0)"/>
<path style=" stroke:none;fill-rule:evenodd;fill:rgb(97.647059%,81.960784%,0%);fill-opacity:1;" d="M 84.371094 51.957031 L 84.109375 51.957031 C 84.109375 51.695312 84.371094 51.695312 84.628906 51.695312 C 84.371094 51.695312 84.371094 51.695312 84.371094 51.957031 "/>
<path style=" stroke:none;fill-rule:evenodd;fill:rgb(100%,100%,100%);fill-opacity:1;" d="M 95.824219 104.894531 L 91.660156 104.894531 L 91.660156 101.003906 L 84.371094 101.003906 L 84.371094 104.894531 L 78.121094 104.894531 L 78.121094 101.523438 L 78.382812 101.523438 C 78.644531 101.003906 78.902344 101.003906 78.902344 100.484375 C 79.164062 99.445312 79.164062 98.667969 78.902344 97.628906 C 78.90625 95.8125 78.902344 94.773438 78.640625 92.957031 C 77.863281 92.699219 77.339844 92.699219 76.820312 92.179688 C 75.777344 91.660156 75.519531 91.140625 74.738281 90.625 L 74.21875 87.765625 C 73.957031 86.46875 73.957031 85.949219 73.433594 84.65625 C 73.4375 84.652344 73.433594 84.394531 73.175781 84.394531 C 72.394531 84.132812 72.132812 84.132812 71.351562 83.875 C 70.3125 83.355469 69.789062 82.835938 69.007812 82.058594 C 68.230469 81.019531 67.1875 80.5 66.144531 79.980469 C 65.367188 79.464844 64.84375 79.203125 63.800781 78.683594 L 62.242188 78.683594 C 60.160156 78.425781 58.855469 77.90625 57.292969 77.386719 C 57.035156 77.386719 56.773438 77.386719 56.773438 77.648438 C 56.515625 77.90625 56.511719 78.167969 56.253906 78.425781 C 55.992188 79.203125 55.730469 79.464844 55.210938 79.980469 C 55.472656 79.464844 55.730469 79.203125 55.992188 78.683594 C 56.253906 78.425781 56.253906 78.167969 56.253906 77.648438 C 55.472656 77.128906 55.210938 76.609375 54.429688 76.089844 C 53.648438 75.570312 53.128906 75.050781 52.347656 74.535156 C 52.085938 74.273438 52.085938 74.535156 51.828125 74.535156 C 51.046875 74.53125 50.523438 74.273438 49.742188 74.535156 C 48.703125 74.53125 47.921875 74.535156 46.878906 74.535156 C 46.621094 74.53125 46.621094 74.792969 46.359375 74.792969 C 45.320312 75.050781 44.796875 75.3125 43.757812 75.832031 C 42.195312 76.609375 40.890625 76.867188 40.890625 76.867188 C 41.152344 77.648438 41.671875 78.945312 41.414062 79.980469 C 41.152344 80.242188 41.152344 80.5 40.890625 80.761719 C 41.152344 79.980469 41.414062 79.722656 41.152344 78.945312 C 41.152344 78.164062 40.632812 77.386719 40.109375 76.867188 C 39.589844 76.867188 38.808594 76.867188 38.027344 77.128906 C 37.769531 77.386719 37.507812 77.648438 37.507812 78.167969 C 36.207031 78.164062 35.164062 78.425781 34.382812 78.425781 C 33.863281 78.683594 33.863281 79.464844 33.601562 80.242188 C 33.082031 80.761719 32.820312 80.761719 32.300781 81.28125 C 31.78125 81.800781 31.257812 82.058594 31 82.316406 C 31 82.316406 30.21875 82.578125 29.957031 82.578125 C 29.699219 82.578125 29.699219 82.835938 29.699219 83.097656 C 29.699219 83.097656 29.699219 83.875 29.699219 83.875 C 29.699219 84.132812 30.21875 84.394531 30.476562 84.914062 C 30.738281 85.171875 31.257812 85.691406 31.257812 85.691406 C 31.519531 85.433594 31.78125 85.433594 32.039062 85.433594 C 32.5625 85.433594 32.820312 85.433594 33.34375 85.433594 C 33.34375 85.691406 33.082031 85.691406 32.820312 85.691406 L 32.300781 85.691406 C 32.042969 85.691406 32.300781 86.46875 32.300781 86.46875 C 32.824219 86.730469 33.082031 86.730469 33.601562 86.730469 L 35.164062 86.730469 C 35.6875 87.25 36.207031 87.507812 36.988281 87.507812 C 37.507812 87.765625 38.027344 88.027344 38.808594 88.285156 L 40.109375 88.285156 C 40.371094 88.285156 40.109375 88.804688 40.109375 88.804688 C 39.332031 89.324219 38.808594 89.324219 38.027344 89.84375 C 37.25 90.363281 36.207031 90.625 35.945312 91.140625 C 35.425781 91.917969 34.90625 92.4375 34.382812 93.21875 C 33.605469 94.253906 33.082031 94.773438 32.300781 95.8125 C 31.78125 96.070312 32.300781 97.628906 32.820312 97.628906 L 38.289062 97.628906 C 38.550781 97.628906 38.808594 97.371094 39.070312 96.851562 C 39.332031 96.589844 39.332031 96.59375 39.332031 96.070312 C 40.371094 95.550781 40.890625 95.292969 41.671875 94.773438 C 42.714844 93.996094 43.234375 93.476562 44.015625 92.699219 C 44.015625 92.179688 43.757812 91.917969 43.757812 91.402344 C 43.496094 91.140625 43.496094 90.882812 43.496094 90.363281 C 43.496094 90.882812 43.757812 91.140625 43.757812 91.660156 C 44.015625 92.179688 44.015625 92.179688 44.535156 92.699219 C 44.539062 93.996094 44.535156 94.515625 44.535156 95.8125 C 44.539062 96.851562 44.535156 97.371094 44.535156 98.667969 C 43.496094 98.925781 42.714844 99.445312 42.453125 99.445312 C 42.195312 99.703125 42.195312 100.226562 41.933594 100.484375 C 41.933594 100.742188 42.195312 101.261719 42.453125 101.523438 L 43.757812 101.523438 L 43.757812 104.894531 L 37.507812 104.894531 L 37.507812 101.003906 L 30.21875 101.003906 L 30.21875 104.894531 L 23.972656 104.894531 L 23.972656 101.003906 L 16.679688 101.003906 L 16.679688 104.894531 L 12.515625 104.894531 C 7.046875 96.851562 3.664062 86.988281 3.664062 76.347656 L 3.664062 71.9375 L 104.675781 71.9375 L 104.675781 76.347656 C 104.675781 86.988281 101.292969 96.851562 95.824219 104.894531 "/>
<path style=" stroke:none;fill-rule:evenodd;fill:rgb(100%,100%,100%);fill-opacity:1;" d="M 70.832031 101.003906 L 70.832031 104.894531 L 64.585938 104.894531 L 64.585938 101.523438 L 65.105469 101.523438 C 65.625 101.003906 66.144531 100.226562 66.40625 99.703125 C 67.1875 98.667969 67.707031 98.148438 68.226562 97.109375 C 68.230469 96.332031 67.96875 95.8125 67.96875 95.035156 C 67.96875 93.996094 67.707031 93.476562 67.449219 92.4375 C 67.707031 92.4375 67.707031 92.179688 67.707031 92.179688 C 67.96875 91.917969 67.96875 91.660156 68.226562 91.140625 C 67.96875 91.660156 67.96875 91.660156 67.96875 91.917969 C 67.707031 92.179688 67.707031 92.4375 67.707031 92.699219 L 67.707031 93.21875 C 68.230469 93.996094 68.488281 94.257812 69.269531 94.773438 C 70.3125 95.550781 71.09375 96.070312 72.394531 97.109375 C 72.65625 97.109375 72.914062 97.371094 72.914062 97.628906 C 73.175781 97.886719 73.175781 98.667969 73.175781 99.1875 L 71.613281 99.1875 C 71.09375 99.445312 70.832031 99.703125 70.832031 100.226562 C 70.574219 100.484375 70.570312 100.742188 70.832031 101.003906 "/>
<path style=" stroke:none;fill-rule:evenodd;fill:rgb(100%,100%,100%);fill-opacity:1;" d="M 57.554688 101.003906 L 57.292969 101.003906 L 57.292969 104.894531 L 51.046875 104.894531 L 51.046875 101.003906 L 49.746094 101.003906 C 50.003906 100.222656 50.265625 99.1875 50.785156 98.148438 C 51.046875 96.851562 51.304688 96.332031 51.566406 95.035156 C 51.566406 94.773438 51.566406 94.773438 51.566406 94.515625 C 51.308594 93.476562 51.046875 93.21875 50.785156 92.4375 C 50.527344 91.660156 50.265625 91.140625 50.265625 90.101562 C 50.527344 90.882812 50.523438 91.140625 50.523438 91.402344 C 50.785156 91.660156 50.785156 91.917969 51.046875 91.917969 C 51.046875 91.917969 51.304688 91.917969 51.304688 92.179688 C 51.828125 92.179688 52.609375 92.699219 53.386719 93.21875 C 54.429688 93.476562 54.691406 93.476562 55.730469 93.734375 C 56.773438 93.734375 57.292969 93.996094 58.335938 93.996094 C 58.335938 94.515625 58.59375 94.515625 58.59375 95.035156 C 59.117188 95.8125 59.375 96.332031 59.898438 96.851562 C 60.160156 96.851562 60.15625 97.109375 60.15625 97.371094 C 60.160156 97.628906 60.15625 97.886719 60.15625 98.148438 C 59.898438 98.40625 59.898438 98.667969 59.898438 98.925781 C 59.636719 98.925781 59.117188 98.925781 58.59375 99.1875 C 57.816406 99.445312 57.292969 99.964844 57.292969 100.742188 C 57.292969 100.742188 57.554688 101.003906 57.554688 101.003906 "/>
<path style=" stroke:none;fill-rule:nonzero;fill:rgb(16.078431%,16.470588%,16.862745%);fill-opacity:1;" d="M 9.941406 10.882812 L 12.53125 16.890625 L 19.089844 17.039062 L 19.195312 17.039062 L 19.238281 17.136719 L 21.84375 23.179688 L 28.347656 23.328125 L 28.453125 23.332031 L 28.496094 23.425781 L 31.113281 29.507812 L 37.679688 29.65625 L 37.785156 29.65625 L 37.828125 29.753906 L 40.414062 35.757812 L 46.9375 35.90625 L 47.042969 35.910156 L 49.6875 42.046875 L 56.308594 42.195312 L 56.414062 42.199219 L 56.457031 42.296875 L 59.058594 48.339844 L 65.605469 48.488281 L 65.707031 48.488281 L 65.75 48.585938 L 68.355469 54.628906 L 74.898438 54.777344 L 75.003906 54.777344 L 75.042969 54.875 L 77.632812 60.878906 L 84.230469 61.027344 L 84.335938 61.03125 L 84.378906 61.125 L 86.980469 67.167969 L 93.566406 67.316406 L 93.667969 67.320312 L 93.710938 67.414062 L 95.292969 71.09375 L 95.082031 71.09375 L 93.578125 67.597656 L 93.535156 67.503906 L 93.429688 67.5 L 86.847656 67.351562 L 84.242188 61.308594 L 84.203125 61.214844 L 84.097656 61.210938 L 77.5 61.0625 L 74.910156 55.058594 L 74.871094 54.960938 L 74.765625 54.960938 L 68.222656 54.8125 L 65.617188 48.769531 L 65.574219 48.671875 L 65.472656 48.671875 L 58.925781 48.523438 L 56.320312 42.476562 L 56.28125 42.382812 L 56.175781 42.378906 L 49.59375 42.230469 L 49.539062 42.195312 L 46.953125 36.1875 L 46.910156 36.09375 L 46.804688 36.089844 L 40.300781 35.941406 L 40.273438 35.925781 L 37.695312 29.9375 L 37.652344 29.839844 L 37.546875 29.839844 L 31.058594 29.691406 L 30.949219 29.617188 L 28.363281 23.609375 L 28.320312 23.515625 L 28.214844 23.511719 L 21.707031 23.363281 L 19.105469 17.320312 L 19.0625 17.222656 L 18.957031 17.222656 L 12.40625 17.074219 L 12.390625 17.0625 L 9.808594 11.066406 L 9.769531 10.972656 L 9.664062 10.96875 L 3.167969 10.820312 L 2.902344 10.640625 L 2.894531 10.628906 L 3.148438 10.636719 L 9.796875 10.785156 L 9.902344 10.789062 Z M 87.238281 67.683594 L 87.246094 67.703125 L 87.21875 67.683594 Z M 92.890625 68.632812 L 93.949219 71.09375 L 93.738281 71.09375 L 92.753906 68.816406 L 92.714844 68.722656 L 92.613281 68.71875 L 88.707031 68.632812 L 88.671875 68.628906 L 88.589844 68.441406 L 88.84375 68.449219 L 92.742188 68.535156 L 92.847656 68.539062 Z M 89.167969 68.964844 L 89.1875 69.015625 L 89.109375 68.964844 Z M 83.558594 62.34375 L 85.109375 65.945312 L 85.207031 66.175781 L 84.996094 66.171875 L 84.976562 66.132812 L 83.425781 62.527344 L 83.382812 62.433594 L 83.277344 62.429688 L 79.375 62.339844 L 79.339844 62.339844 L 79.257812 62.152344 L 79.507812 62.160156 L 83.410156 62.246094 L 83.519531 62.25 Z M 79.832031 62.675781 L 79.839844 62.695312 L 79.8125 62.675781 Z M 74.226562 56.09375 L 75.777344 59.695312 L 75.875 59.921875 L 75.742188 59.921875 L 75.628906 59.84375 L 74.089844 56.277344 L 74.050781 56.179688 L 73.945312 56.179688 L 70.082031 56.089844 L 69.976562 56.019531 L 69.925781 55.902344 L 70.175781 55.90625 L 74.078125 55.996094 L 74.183594 55.996094 Z M 64.929688 49.804688 L 66.480469 53.40625 L 66.582031 53.632812 L 66.445312 53.632812 L 66.335938 53.558594 L 64.796875 49.984375 L 64.757812 49.890625 L 64.652344 49.886719 L 60.78125 49.800781 L 60.683594 49.734375 L 60.628906 49.609375 L 60.882812 49.617188 L 64.785156 49.707031 L 64.890625 49.707031 Z M 55.636719 43.511719 L 57.1875 47.117188 L 57.285156 47.34375 L 57.148438 47.34375 L 57.042969 47.269531 L 55.5 43.695312 L 55.460938 43.601562 L 55.355469 43.597656 L 51.484375 43.511719 L 51.386719 43.445312 L 51.335938 43.320312 L 51.585938 43.328125 L 55.488281 43.414062 L 55.59375 43.417969 Z M 46.265625 37.222656 L 47.914062 41.054688 L 47.851562 41.054688 L 47.640625 40.910156 L 46.132812 37.40625 L 46.089844 37.3125 L 45.984375 37.308594 L 42.191406 37.222656 L 41.988281 37.085938 L 41.964844 37.03125 L 42.214844 37.039062 L 46.117188 37.125 L 46.222656 37.128906 Z M 37.007812 30.972656 L 38.558594 34.574219 L 38.65625 34.800781 L 38.613281 34.800781 L 38.378906 34.640625 L 36.875 31.15625 L 36.832031 31.058594 L 36.726562 31.058594 L 32.953125 30.972656 L 32.726562 30.816406 L 32.707031 30.78125 L 32.957031 30.785156 L 36.863281 30.875 L 36.964844 30.875 Z M 27.675781 24.644531 L 29.226562 28.246094 L 29.324219 28.472656 L 29.257812 28.472656 L 29.050781 28.332031 L 27.542969 24.828125 L 27.5 24.730469 L 27.394531 24.730469 L 23.597656 24.644531 L 23.398438 24.511719 L 23.375 24.453125 L 23.625 24.457031 L 27.527344 24.546875 L 27.632812 24.550781 Z M 18.417969 18.355469 L 19.96875 21.957031 L 20.066406 22.183594 L 19.960938 22.183594 L 19.8125 22.082031 L 18.285156 18.539062 L 18.242188 18.441406 L 18.136719 18.441406 L 14.300781 18.355469 L 14.160156 18.257812 L 14.117188 18.164062 L 14.371094 18.167969 L 18.273438 18.257812 L 18.378906 18.257812 Z M 9.125 12.101562 L 10.675781 15.707031 L 10.773438 15.933594 L 10.722656 15.933594 L 10.496094 15.777344 L 8.988281 12.285156 L 8.949219 12.191406 L 8.84375 12.1875 L 5.0625 12.101562 L 4.84375 11.957031 L 4.824219 11.910156 L 5.074219 11.917969 L 8.976562 12.003906 L 9.082031 12.007812 Z M 9.125 12.101562 "/>
<path style="fill:none;stroke-width:2;stroke-linecap:butt;stroke-linejoin:miter;stroke:rgb(0%,0%,0%);stroke-opacity:1;stroke-miterlimit:4;" d="M 48.010127 22.594832 L 49.072121 27.640475 C 51.316334 38.053395 57.64822 46.234976 67.386502 51.260517 C 71.614439 53.451653 74.059028 54.014513 79.66956 54.054718 C 83.516782 54.07482 88.085359 53.793389 89.788556 53.411448 C 92.854311 52.727975 92.934462 52.808383 93.595703 56.86902 C 95.2989 67.482963 103.133608 77.513942 113.272642 82.077133 C 118.622685 84.469291 120.34592 84.750721 127.519387 84.449189 C 133.190032 84.207963 136.917028 83.464183 139.802445 82.036929 L 143.930194 79.966406 L 144.391059 87.544922 C 145.172526 100.611328 152.265842 110.421184 165.470631 116.672957 C 172.022931 119.76869 181.28031 120.653185 186.49009 118.663071 C 188.834491 117.778576 188.994792 117.959495 189.59592 121.919621 C 192.581525 141.941376 213.46072 154.846965 232.817057 148.675601 C 236.584129 147.469471 240.110749 146.283444 240.671803 146.042218 C 241.272931 145.780889 241.53342 147.489573 241.333044 150.525 C 240.872179 157.017999 243.577257 166.084075 247.50463 171.270433 C 253.936704 179.773648 267.401982 185.281641 279.284288 184.296635 L 285.996889 183.733774 L 287.219184 188.920132 C 289.52351 198.729988 292.949942 203.413792 302.107133 209.323828 C 312.767144 216.178666 322.124711 217.425 332.163556 213.283954 L 337.6739 211.032512 L 337.814164 217.063161 C 338.134766 229.868239 345.047743 240.462079 356.930049 246.291707 C 362.019604 248.784375 363.742839 249.10601 372.399089 249.10601 L 382.117332 249.10601 L 384.101056 255.599008 C 387.387225 266.373768 393.117983 272.565234 404.65965 277.751593 C 411.432364 280.807121 422.653429 280.847326 429.426143 277.832001 L 434.175058 275.721274 L 434.175058 281.611208 C 434.175058 294.35598 442.350405 306.71881 454.312862 312.086088 C 460.083695 314.679267 461.185764 314.840084 469.741826 314.317428 L 478.939091 313.774669 L 479.600333 317.875511 C 480.562138 323.926262 485.952257 333.29387 490.681134 337.173588 C 497.834563 343.023317 503.585359 345.09384 512.662399 345.053636 C 518.693721 345.013431 521.859664 344.470673 525.546586 342.802194 C 528.231626 341.596064 530.515914 340.611058 530.63614 340.611058 C 530.736328 340.611058 530.836516 343.927915 530.836516 347.988552 C 530.836516 354.039303 531.317419 356.290745 533.501519 360.492097 L 536.18656 365.598047 " transform="matrix(0.194946,0,0,0.19432,0,0)"/>
<path style="fill:none;stroke-width:2;stroke-linecap:butt;stroke-linejoin:miter;stroke:rgb(0%,0%,0%);stroke-opacity:1;stroke-miterlimit:4;" d="M 19.336299 86.097566 L 429.325955 365.43723 " transform="matrix(0.194946,0,0,0.19432,0,0)"/>
<path style="fill:none;stroke-width:2;stroke-linecap:butt;stroke-linejoin:miter;stroke:rgb(0%,0%,0%);stroke-opacity:1;stroke-miterlimit:4;" d="M 18.675058 28.102825 L 518.673683 368.110817 " transform="matrix(0.194946,0,0,0.19432,0,0)"/>
<path style="fill:none;stroke-width:2;stroke-linecap:butt;stroke-linejoin:miter;stroke:rgb(0%,0%,0%);stroke-opacity:1;stroke-miterlimit:4;" d="M 476.835142 351.988882 L 481.884621 366.964994 L 460.905237 366.964994 L 454.994141 351.566737 Z M 480.902778 345.998438 L 488.817636 367.427344 L 454.292824 367.568059 L 445.957176 345.314964 Z M 429.045428 319.523888 L 437.501302 339.666256 L 415.92079 339.766767 L 407.204427 319.101743 Z M 433.113064 313.533444 L 446.618417 345.777314 L 412.113643 345.918029 L 398.167462 312.870072 Z M 381.255715 287.078996 L 389.691551 307.221364 L 368.131076 307.301773 L 359.414714 286.656851 Z M 385.323351 281.088552 L 398.828704 313.332422 L 364.303892 313.473137 L 350.357711 280.42518 Z M 333.466001 254.614002 L 341.901837 274.776472 L 320.321325 274.856881 L 311.604962 254.191857 Z M 337.5136 248.64366 L 351.03899 280.867428 L 316.514178 281.008143 L 302.567998 247.960186 Z M 285.65625 222.169111 L 294.112124 242.311478 L 272.531612 242.391887 L 263.815249 221.746965 Z M 289.723886 216.178666 L 303.249277 248.422536 L 268.724465 248.563251 L 254.778284 215.515294 Z M 237.866536 189.704117 L 246.32241 209.866587 L 224.741898 209.946995 L 216.025535 189.281971 Z M 241.934172 183.733774 L 255.439525 215.957542 L 220.934751 216.098257 L 206.988571 183.0503 Z M 190.076823 157.259225 L 198.512659 177.401593 L 176.952185 177.502103 L 168.235822 156.837079 Z M 194.144459 151.26878 L 207.649812 183.51265 L 173.125 183.653365 L 159.178819 150.605409 Z M 142.287109 124.794231 L 150.722946 144.956701 L 129.162471 145.037109 L 120.426071 124.392188 Z M 146.334708 118.823888 L 159.860098 151.047656 L 125.335286 151.188371 L 111.389106 118.140415 Z M 94.477358 92.349339 L 102.933232 112.491707 L 81.35272 112.592218 L 72.636357 91.927194 Z M 98.544994 86.358894 L 112.070385 118.602764 L 77.545573 118.74348 L 63.599392 85.695523 Z M 46.687645 59.904447 L 55.143519 80.046815 L 33.563006 80.127224 L 24.846644 59.482302 Z M 50.755281 53.914002 L 64.280671 86.157873 L 29.755859 86.278486 L 15.809679 53.230529 Z M 50.755281 53.914002 " transform="matrix(0.194946,0,0,0.19432,0,0)"/>
</g>
</svg>
